<?xml version="1.0" encoding="utf-8"?>
<svg xmlns="http://www.w3.org/2000/svg" xmlns:xlink="http://www.w3.org/1999/xlink" width="600" height="400" viewBox="0 0 2400 1600">
<defs>
  <clipPath id="clip610">
    <rect x="0" y="0" width="2400" height="1600"/>
  </clipPath>
</defs>
<path clip-path="url(#clip610)" d="
M0 1600 L2400 1600 L2400 0 L0 0  Z
  " fill="#ffffff" fill-rule="evenodd" fill-opacity="1"/>
<defs>
  <clipPath id="clip611">
    <rect x="480" y="0" width="1681" height="1600"/>
  </clipPath>
</defs>
<defs>
  <clipPath id="clip612">
    <rect x="195" y="123" width="2159" height="1317"/>
  </clipPath>
</defs>
<path clip-path="url(#clip610)" d="
M195.127 1439.66 L2352.76 1439.66 L2352.76 123.472 L195.127 123.472  Z
  " fill="#ffffff" fill-rule="evenodd" fill-opacity="1"/>
<polyline clip-path="url(#clip612)" style="stroke:#000000; stroke-width:2; stroke-opacity:0.1; fill:none" points="
  254.817,1439.66 254.817,123.472 
  "/>
<polyline clip-path="url(#clip612)" style="stroke:#000000; stroke-width:2; stroke-opacity:0.1; fill:none" points="
  942.485,1439.66 942.485,123.472 
  "/>
<polyline clip-path="url(#clip612)" style="stroke:#000000; stroke-width:2; stroke-opacity:0.1; fill:none" points="
  1630.15,1439.66 1630.15,123.472 
  "/>
<polyline clip-path="url(#clip612)" style="stroke:#000000; stroke-width:2; stroke-opacity:0.1; fill:none" points="
  2317.82,1439.66 2317.82,123.472 
  "/>
<polyline clip-path="url(#clip610)" style="stroke:#000000; stroke-width:4; stroke-opacity:1; fill:none" points="
  195.127,1439.66 2352.76,1439.66 
  "/>
<polyline clip-path="url(#clip610)" style="stroke:#000000; stroke-width:4; stroke-opacity:1; fill:none" points="
  254.817,1439.66 254.817,1423.86 
  "/>
<polyline clip-path="url(#clip610)" style="stroke:#000000; stroke-width:4; stroke-opacity:1; fill:none" points="
  942.485,1439.66 942.485,1423.86 
  "/>
<polyline clip-path="url(#clip610)" style="stroke:#000000; stroke-width:4; stroke-opacity:1; fill:none" points="
  1630.15,1439.66 1630.15,1423.86 
  "/>
<polyline clip-path="url(#clip610)" style="stroke:#000000; stroke-width:4; stroke-opacity:1; fill:none" points="
  2317.82,1439.66 2317.82,1423.86 
  "/>
<path clip-path="url(#clip610)" d="M 0 0 M236.333 1468.85 Q232.722 1468.85 230.893 1472.41 Q229.088 1475.96 229.088 1483.08 Q229.088 1490.19 230.893 1493.76 Q232.722 1497.3 236.333 1497.3 Q239.967 1497.3 241.773 1493.76 Q243.601 1490.19 243.601 1483.08 Q243.601 1475.96 241.773 1472.41 Q239.967 1468.85 236.333 1468.85 M236.333 1465.15 Q242.143 1465.15 245.199 1469.75 Q248.277 1474.33 248.277 1483.08 Q248.277 1491.81 245.199 1496.42 Q242.143 1501 236.333 1501 Q230.523 1501 227.444 1496.42 Q224.388 1491.81 224.388 1483.08 Q224.388 1474.33 227.444 1469.75 Q230.523 1465.15 236.333 1465.15 Z" fill="#000000" fill-rule="evenodd" fill-opacity="1" /><path clip-path="url(#clip610)" d="M 0 0 M253.347 1494.45 L258.231 1494.45 L258.231 1500.33 L253.347 1500.33 L253.347 1494.45 Z" fill="#000000" fill-rule="evenodd" fill-opacity="1" /><path clip-path="url(#clip610)" d="M 0 0 M273.3 1468.85 Q269.689 1468.85 267.86 1472.41 Q266.055 1475.96 266.055 1483.08 Q266.055 1490.19 267.86 1493.76 Q269.689 1497.3 273.3 1497.3 Q276.935 1497.3 278.74 1493.76 Q280.569 1490.19 280.569 1483.08 Q280.569 1475.96 278.74 1472.41 Q276.935 1468.85 273.3 1468.85 M273.3 1465.15 Q279.11 1465.15 282.166 1469.75 Q285.245 1474.33 285.245 1483.08 Q285.245 1491.81 282.166 1496.42 Q279.11 1501 273.3 1501 Q267.49 1501 264.411 1496.42 Q261.356 1491.81 261.356 1483.08 Q261.356 1474.33 264.411 1469.75 Q267.49 1465.15 273.3 1465.15 Z" fill="#000000" fill-rule="evenodd" fill-opacity="1" /><path clip-path="url(#clip610)" d="M 0 0 M924.499 1468.85 Q920.888 1468.85 919.059 1472.41 Q917.254 1475.96 917.254 1483.08 Q917.254 1490.19 919.059 1493.76 Q920.888 1497.3 924.499 1497.3 Q928.133 1497.3 929.939 1493.76 Q931.768 1490.19 931.768 1483.08 Q931.768 1475.96 929.939 1472.41 Q928.133 1468.85 924.499 1468.85 M924.499 1465.15 Q930.309 1465.15 933.365 1469.75 Q936.444 1474.33 936.444 1483.08 Q936.444 1491.81 933.365 1496.42 Q930.309 1501 924.499 1501 Q918.689 1501 915.61 1496.42 Q912.555 1491.81 912.555 1483.08 Q912.555 1474.33 915.61 1469.75 Q918.689 1465.15 924.499 1465.15 Z" fill="#000000" fill-rule="evenodd" fill-opacity="1" /><path clip-path="url(#clip610)" d="M 0 0 M941.513 1494.45 L946.397 1494.45 L946.397 1500.33 L941.513 1500.33 L941.513 1494.45 Z" fill="#000000" fill-rule="evenodd" fill-opacity="1" /><path clip-path="url(#clip610)" d="M 0 0 M951.513 1465.77 L969.869 1465.77 L969.869 1469.71 L955.795 1469.71 L955.795 1478.18 Q956.814 1477.83 957.832 1477.67 Q958.851 1477.48 959.869 1477.48 Q965.656 1477.48 969.036 1480.65 Q972.416 1483.83 972.416 1489.24 Q972.416 1494.82 968.943 1497.92 Q965.471 1501 959.152 1501 Q956.976 1501 954.707 1500.63 Q952.462 1500.26 950.055 1499.52 L950.055 1494.82 Q952.138 1495.96 954.36 1496.51 Q956.582 1497.07 959.059 1497.07 Q963.064 1497.07 965.402 1494.96 Q967.74 1492.85 967.74 1489.24 Q967.74 1485.63 965.402 1483.52 Q963.064 1481.42 959.059 1481.42 Q957.184 1481.42 955.309 1481.83 Q953.457 1482.25 951.513 1483.13 L951.513 1465.77 Z" fill="#000000" fill-rule="evenodd" fill-opacity="1" /><path clip-path="url(#clip610)" d="M 0 0 M1602.05 1496.4 L1609.69 1496.4 L1609.69 1470.03 L1601.38 1471.7 L1601.38 1467.44 L1609.64 1465.77 L1614.32 1465.77 L1614.32 1496.4 L1621.96 1496.4 L1621.96 1500.33 L1602.05 1500.33 L1602.05 1496.4 Z" fill="#000000" fill-rule="evenodd" fill-opacity="1" /><path clip-path="url(#clip610)" d="M 0 0 M1627.03 1494.45 L1631.91 1494.45 L1631.91 1500.33 L1627.03 1500.33 L1627.03 1494.45 Z" fill="#000000" fill-rule="evenodd" fill-opacity="1" /><path clip-path="url(#clip610)" d="M 0 0 M1646.98 1468.85 Q1643.37 1468.85 1641.54 1472.41 Q1639.74 1475.96 1639.74 1483.08 Q1639.74 1490.19 1641.54 1493.76 Q1643.37 1497.3 1646.98 1497.3 Q1650.62 1497.3 1652.42 1493.76 Q1654.25 1490.19 1654.25 1483.08 Q1654.25 1475.96 1652.42 1472.41 Q1650.62 1468.85 1646.98 1468.85 M1646.98 1465.15 Q1652.79 1465.15 1655.85 1469.75 Q1658.93 1474.33 1658.93 1483.08 Q1658.93 1491.81 1655.85 1496.42 Q1652.79 1501 1646.98 1501 Q1641.17 1501 1638.09 1496.42 Q1635.04 1491.81 1635.04 1483.08 Q1635.04 1474.33 1638.09 1469.75 Q1641.17 1465.15 1646.98 1465.15 Z" fill="#000000" fill-rule="evenodd" fill-opacity="1" /><path clip-path="url(#clip610)" d="M 0 0 M2290.22 1496.4 L2297.86 1496.4 L2297.86 1470.03 L2289.55 1471.7 L2289.55 1467.44 L2297.81 1465.77 L2302.49 1465.77 L2302.49 1496.4 L2310.13 1496.4 L2310.13 1500.33 L2290.22 1500.33 L2290.22 1496.4 Z" fill="#000000" fill-rule="evenodd" fill-opacity="1" /><path clip-path="url(#clip610)" d="M 0 0 M2315.2 1494.45 L2320.08 1494.45 L2320.08 1500.33 L2315.2 1500.33 L2315.2 1494.45 Z" fill="#000000" fill-rule="evenodd" fill-opacity="1" /><path clip-path="url(#clip610)" d="M 0 0 M2325.19 1465.77 L2343.55 1465.77 L2343.55 1469.71 L2329.48 1469.71 L2329.48 1478.18 Q2330.5 1477.83 2331.51 1477.67 Q2332.53 1477.48 2333.55 1477.48 Q2339.34 1477.48 2342.72 1480.65 Q2346.1 1483.83 2346.1 1489.24 Q2346.1 1494.82 2342.63 1497.92 Q2339.15 1501 2332.83 1501 Q2330.66 1501 2328.39 1500.63 Q2326.14 1500.26 2323.74 1499.52 L2323.74 1494.82 Q2325.82 1495.96 2328.04 1496.51 Q2330.26 1497.07 2332.74 1497.07 Q2336.75 1497.07 2339.08 1494.96 Q2341.42 1492.85 2341.42 1489.24 Q2341.42 1485.63 2339.08 1483.52 Q2336.75 1481.42 2332.74 1481.42 Q2330.87 1481.42 2328.99 1481.83 Q2327.14 1482.25 2325.19 1483.13 L2325.19 1465.77 Z" fill="#000000" fill-rule="evenodd" fill-opacity="1" /><path clip-path="url(#clip610)" d="M 0 0 M1285.87 1535.69 Q1285.87 1541.1 1284.13 1547.19 Q1282.42 1553.24 1279.71 1558.14 Q1277.01 1563 1273.47 1566.22 Q1269.92 1569.41 1266.54 1569.41 Q1264.38 1569.41 1262.77 1568.22 Q1261.2 1567 1260.33 1564.97 Q1259.46 1562.91 1259.04 1560.65 Q1258.62 1558.36 1258.62 1555.88 Q1258.62 1552.18 1259.42 1548.15 Q1260.23 1544.1 1261.58 1540.43 Q1262.93 1536.72 1264.83 1533.37 Q1266.74 1529.99 1268.83 1527.54 Q1270.95 1525.06 1273.34 1523.61 Q1275.72 1522.16 1277.94 1522.16 Q1279.55 1522.16 1280.84 1522.87 Q1282.16 1523.55 1283 1524.74 Q1283.84 1525.9 1284.42 1527.29 Q1285.03 1528.67 1285.32 1530.28 Q1285.61 1531.86 1285.74 1533.18 Q1285.87 1534.47 1285.87 1535.69 M1281.52 1531.6 Q1281.52 1529.96 1281.39 1528.73 Q1281.26 1527.48 1280.91 1526.22 Q1280.55 1524.97 1279.78 1524.29 Q1279.04 1523.61 1277.88 1523.61 Q1274.5 1523.61 1270.7 1530.54 Q1269.47 1532.7 1268.38 1535.63 Q1267.28 1538.56 1266.9 1539.94 Q1266.51 1541.33 1265.61 1544.74 L1279.39 1544.74 Q1281.52 1535.95 1281.52 1531.6 M1278.81 1546.83 L1265.09 1546.83 Q1262.97 1554.89 1262.97 1559.91 Q1262.97 1564.29 1263.87 1566.13 Q1264.8 1567.93 1266.54 1567.93 Q1268.54 1567.93 1270.41 1565.93 Q1272.27 1563.9 1274.17 1560.23 Q1276.69 1555.47 1278.81 1546.83 Z" fill="#000000" fill-rule="evenodd" fill-opacity="1" /><polyline clip-path="url(#clip612)" style="stroke:#000000; stroke-width:2; stroke-opacity:0.1; fill:none" points="
  195.127,1404.71 2352.76,1404.71 
  "/>
<polyline clip-path="url(#clip612)" style="stroke:#000000; stroke-width:2; stroke-opacity:0.1; fill:none" points="
  195.127,1026.97 2352.76,1026.97 
  "/>
<polyline clip-path="url(#clip612)" style="stroke:#000000; stroke-width:2; stroke-opacity:0.1; fill:none" points="
  195.127,649.226 2352.76,649.226 
  "/>
<polyline clip-path="url(#clip612)" style="stroke:#000000; stroke-width:2; stroke-opacity:0.1; fill:none" points="
  195.127,271.485 2352.76,271.485 
  "/>
<polyline clip-path="url(#clip610)" style="stroke:#000000; stroke-width:4; stroke-opacity:1; fill:none" points="
  195.127,1439.66 195.127,123.472 
  "/>
<polyline clip-path="url(#clip610)" style="stroke:#000000; stroke-width:4; stroke-opacity:1; fill:none" points="
  195.127,1404.71 221.018,1404.71 
  "/>
<polyline clip-path="url(#clip610)" style="stroke:#000000; stroke-width:4; stroke-opacity:1; fill:none" points="
  195.127,1026.97 221.018,1026.97 
  "/>
<polyline clip-path="url(#clip610)" style="stroke:#000000; stroke-width:4; stroke-opacity:1; fill:none" points="
  195.127,649.226 221.018,649.226 
  "/>
<polyline clip-path="url(#clip610)" style="stroke:#000000; stroke-width:4; stroke-opacity:1; fill:none" points="
  195.127,271.485 221.018,271.485 
  "/>
<path clip-path="url(#clip610)" d="M 0 0 M147.183 1390.5 Q143.571 1390.5 141.743 1394.07 Q139.937 1397.61 139.937 1404.74 Q139.937 1411.85 141.743 1415.41 Q143.571 1418.95 147.183 1418.95 Q150.817 1418.95 152.622 1415.41 Q154.451 1411.85 154.451 1404.74 Q154.451 1397.61 152.622 1394.07 Q150.817 1390.5 147.183 1390.5 M147.183 1386.8 Q152.993 1386.8 156.048 1391.41 Q159.127 1395.99 159.127 1404.74 Q159.127 1413.47 156.048 1418.07 Q152.993 1422.66 147.183 1422.66 Q141.372 1422.66 138.294 1418.07 Q135.238 1413.47 135.238 1404.74 Q135.238 1395.99 138.294 1391.41 Q141.372 1386.8 147.183 1386.8 Z" fill="#000000" fill-rule="evenodd" fill-opacity="1" /><path clip-path="url(#clip610)" d="M 0 0 M139.22 1040.31 L146.858 1040.31 L146.858 1013.95 L138.548 1015.61 L138.548 1011.35 L146.812 1009.69 L151.488 1009.69 L151.488 1040.31 L159.127 1040.31 L159.127 1044.25 L139.22 1044.25 L139.22 1040.31 Z" fill="#000000" fill-rule="evenodd" fill-opacity="1" /><path clip-path="url(#clip610)" d="M 0 0 M142.808 662.57 L159.127 662.57 L159.127 666.506 L137.183 666.506 L137.183 662.57 Q139.845 659.816 144.428 655.186 Q149.034 650.533 150.215 649.191 Q152.46 646.668 153.34 644.932 Q154.243 643.172 154.243 641.483 Q154.243 638.728 152.298 636.992 Q150.377 635.256 147.275 635.256 Q145.076 635.256 142.622 636.02 Q140.192 636.784 137.414 638.334 L137.414 633.612 Q140.238 632.478 142.692 631.899 Q145.146 631.321 147.183 631.321 Q152.553 631.321 155.747 634.006 Q158.942 636.691 158.942 641.182 Q158.942 643.311 158.132 645.233 Q157.345 647.131 155.238 649.723 Q154.659 650.395 151.558 653.612 Q148.456 656.807 142.808 662.57 Z" fill="#000000" fill-rule="evenodd" fill-opacity="1" /><path clip-path="url(#clip610)" d="M 0 0 M151.997 270.131 Q155.354 270.849 157.229 273.117 Q159.127 275.386 159.127 278.719 Q159.127 283.835 155.608 286.636 Q152.09 289.437 145.608 289.437 Q143.433 289.437 141.118 288.997 Q138.826 288.58 136.372 287.724 L136.372 283.21 Q138.317 284.344 140.632 284.923 Q142.946 285.501 145.47 285.501 Q149.868 285.501 152.159 283.765 Q154.474 282.029 154.474 278.719 Q154.474 275.664 152.321 273.951 Q150.192 272.214 146.372 272.214 L142.345 272.214 L142.345 268.372 L146.558 268.372 Q150.007 268.372 151.835 267.006 Q153.664 265.617 153.664 263.025 Q153.664 260.363 151.766 258.951 Q149.891 257.515 146.372 257.515 Q144.451 257.515 142.252 257.932 Q140.053 258.349 137.414 259.228 L137.414 255.062 Q140.076 254.321 142.391 253.951 Q144.729 253.58 146.789 253.58 Q152.113 253.58 155.215 256.011 Q158.317 258.418 158.317 262.539 Q158.317 265.409 156.673 267.4 Q155.03 269.367 151.997 270.131 Z" fill="#000000" fill-rule="evenodd" fill-opacity="1" /><path clip-path="url(#clip610)" d="M 0 0 M32.7381 965.568 Q31.6753 965.568 31.6753 964.118 L31.6753 927.178 L46.5222 925.343 L46.5222 927.05 Q42.1744 927.629 39.6624 928.66 Q37.1503 929.69 35.7977 931.88 Q34.445 934.038 34.0908 936.711 Q33.7365 939.384 33.7365 944.28 L33.7365 958.128 L52.4481 945.181 Q53.7685 944.247 54.1872 944.28 Q54.7669 944.28 55.9585 945.407 L73.9616 961.349 L73.9616 945.6 Q73.9616 942.573 73.865 940.673 Q73.7684 938.74 73.5107 936.711 Q73.2209 934.65 72.6734 933.458 Q72.1259 932.267 71.2241 931.075 Q70.3224 929.884 68.9053 929.207 Q67.4882 928.499 65.5881 927.951 Q63.6557 927.404 61.1115 927.05 L61.1115 925.343 L76.7313 927.178 L76.7313 964.183 Q76.7313 965.503 75.9262 965.503 Q75.5397 965.503 74.6057 964.73 L57.0857 949.143 Q56.2162 949.787 54.3805 951.011 L34.2518 964.924 Q33.0602 965.568 32.7381 965.568 Z" fill="#000000" fill-rule="evenodd" fill-opacity="1" /><path clip-path="url(#clip610)" d="M 0 0 M78.1765 897.77 Q79.4615 897.77 80.228 898.559 Q80.9945 899.326 80.9945 900.295 Q80.9945 901.152 80.4985 901.602 Q80.0025 902.053 79.3713 902.053 Q79.1008 902.053 78.7626 901.941 Q78.4019 901.828 77.9736 901.58 Q77.5452 901.309 77.2296 900.746 Q76.914 900.182 76.8689 899.416 Q76.7111 899.573 76.6886 899.619 Q76.418 899.957 76.3279 900.588 Q76.2828 900.678 76.2828 900.994 Q76.2828 902.549 77.4325 904.127 Q78.5597 905.683 80.7014 907.599 Q83.2038 910.011 84.1281 911.567 Q85.0299 904.736 88.9751 904.736 Q89.6289 904.736 90.4179 904.916 Q91.9058 905.277 92.9879 905.277 Q95.1522 905.277 95.1522 903.812 Q95.1522 902.392 93.7094 901.49 Q92.2665 900.565 89.4485 899.799 Q88.93 899.686 88.7722 899.573 Q88.6144 899.461 88.6144 899.145 Q88.6144 898.582 89.0653 898.582 Q91.7029 899.1 93.7319 900.25 Q96.1892 901.715 96.1892 903.902 Q96.1892 905.728 94.9267 906.945 Q93.6417 908.14 91.6128 908.14 Q91.1168 908.14 89.9896 907.96 Q89.5387 907.825 89.0202 907.825 Q87.9606 907.825 87.1716 908.411 Q86.36 908.997 85.9542 909.944 Q85.5484 910.891 85.368 911.68 Q85.1651 912.446 85.0975 913.19 Q94.6337 915.445 95.2198 915.76 Q95.6256 915.963 95.8961 916.414 Q96.1892 916.865 96.1892 917.338 Q96.1892 917.789 95.8736 918.24 Q95.5805 918.668 94.8817 918.668 Q94.5209 918.668 93.8672 918.488 L67.2651 911.792 L66.3634 911.657 Q66.0928 911.657 65.9576 911.77 Q65.7998 911.86 65.687 912.401 Q65.5743 912.92 65.5743 913.957 Q65.5743 914.385 65.5518 914.588 Q65.5292 914.768 65.4165 914.926 Q65.2812 915.084 65.0107 915.084 Q64.6275 915.084 64.4246 914.926 Q64.1991 914.746 64.154 914.61 Q64.1089 914.475 64.0864 914.205 Q64.0639 913.821 63.9511 912.536 Q63.8159 911.251 63.7257 910.147 Q63.6355 909.042 63.6355 908.569 Q63.6355 908.298 63.7708 908.163 Q63.8835 908.005 64.0188 907.982 L64.1315 907.96 L83.6096 912.762 Q82.8206 910.778 79.3262 907.644 Q75.2683 904.015 75.2683 900.904 Q75.2683 899.438 76.17 898.604 Q77.0493 897.77 78.1765 897.77 Z" fill="#000000" fill-rule="evenodd" fill-opacity="1" /><path clip-path="url(#clip610)" d="M 0 0 M60.2419 890.924 Q49.0987 890.924 40.1133 886.769 Q36.3452 884.998 33.189 882.518 Q30.0328 880.038 28.648 878.396 Q27.2631 876.753 27.2631 876.302 Q27.2631 875.658 27.9072 875.626 Q28.2293 875.626 29.0344 876.495 Q39.8556 887.123 60.2419 887.091 Q80.6926 887.091 91.0951 876.753 Q92.2223 875.626 92.5766 875.626 Q93.2207 875.626 93.2207 876.302 Q93.2207 876.753 91.9003 878.331 Q90.5798 879.909 87.5525 882.357 Q84.5251 884.805 80.8215 886.576 Q71.836 890.924 60.2419 890.924 Z" fill="#000000" fill-rule="evenodd" fill-opacity="1" /><path clip-path="url(#clip610)" d="M 0 0 M39.6596 835.887 L40.5839 836.451 Q39.0735 839.945 36.6613 844.296 Q39.0735 848.647 40.5839 852.142 L39.6596 852.683 Q36.3456 848.873 33.7982 844.296 Q36.3682 839.675 39.6596 835.887 Z" fill="#000000" fill-rule="evenodd" fill-opacity="1" /><path clip-path="url(#clip610)" d="M 0 0 M50.0971 833.144 Q50.548 833.144 51.6107 833.433 L76.7957 839.746 Q82.3996 841.131 86.3287 845.639 Q90.2578 850.116 90.2578 855.205 Q90.2578 858.264 88.6153 860.229 Q87.005 862.193 84.5251 862.193 Q82.3351 862.193 81.2723 861.034 Q80.2418 859.874 80.2418 858.49 Q80.2418 858.039 80.3706 857.556 Q80.4994 857.072 81.0469 856.557 Q81.5944 856.042 82.5284 856.042 Q84.042 856.042 85.2337 857.362 Q85.7812 858.006 85.91 858.618 Q86.0388 859.198 86.0388 860.196 Q86.9406 859.81 87.5525 859.101 Q88.1644 858.393 88.3898 857.588 Q88.6475 856.783 88.7119 856.267 Q88.8085 855.72 88.8085 855.205 Q88.8085 851.082 84.654 847.926 Q83.3979 846.992 82.1419 846.316 Q80.9181 845.607 79.4044 845.092 Q77.9229 844.577 77.1178 844.351 Q76.3126 844.094 74.4769 843.643 Q77.4721 846.638 77.4721 850.309 Q77.4721 851.855 77.0534 853.24 Q76.6347 854.593 75.7651 855.784 Q74.8634 856.976 73.2853 857.684 Q71.7072 858.361 69.6138 858.361 Q67.3916 858.361 64.3643 857.491 Q61.3369 856.622 55.7653 854.528 Q52.6413 853.401 51.1277 853.401 Q50.3869 853.401 49.936 853.562 Q49.453 853.723 49.2919 854.045 Q49.0987 854.367 49.0665 854.56 Q49.0343 854.721 49.0343 855.044 Q49.0343 856.944 50.9666 858.715 Q52.899 860.486 57.2146 861.71 Q58.0197 861.968 58.2129 862.129 Q58.4062 862.29 58.4062 862.773 Q58.374 863.578 57.7299 863.578 Q57.4722 863.578 56.4738 863.288 Q55.4432 862.998 53.9296 862.322 Q52.3837 861.614 50.9988 860.647 Q49.5818 859.681 48.5834 858.167 Q47.585 856.622 47.585 854.85 Q47.585 852.435 49.1631 850.953 Q50.709 849.44 52.9956 849.44 Q53.9296 849.44 54.7669 849.697 Q55.5721 849.923 57.7299 850.76 Q66.4254 854.142 70.6766 854.142 Q71.7072 854.142 72.5768 853.981 Q73.4141 853.788 74.2515 853.369 Q75.0566 852.95 75.5397 852.113 Q75.9906 851.243 75.9906 850.052 Q75.9906 848.538 75.2821 847.121 Q74.5413 845.672 73.5429 844.77 Q72.5446 843.836 71.7072 843.288 Q70.8376 842.709 70.3868 842.58 L58.535 839.617 L53.2532 838.296 Q50.3869 837.685 49.6784 837.395 Q49.0021 837.008 48.6478 836.332 Q48.2935 835.656 48.2935 835.076 Q48.2935 834.271 48.7766 833.723 Q49.2597 833.144 50.0971 833.144 Z" fill="#000000" fill-rule="evenodd" fill-opacity="1" /><path clip-path="url(#clip610)" d="M 0 0 M91.5046 804.346 Q92.7896 804.346 93.5561 805.135 Q94.3226 805.901 94.3226 806.871 Q94.3226 807.728 93.8266 808.178 Q93.3307 808.629 92.6994 808.629 Q92.4289 808.629 92.0907 808.517 Q91.73 808.404 91.3017 808.156 Q90.8734 807.885 90.5577 807.322 Q90.2421 806.758 90.197 805.992 Q90.0392 806.149 90.0167 806.195 Q89.7462 806.533 89.656 807.164 Q89.6109 807.254 89.6109 807.57 Q89.6109 809.125 90.7606 810.703 Q91.8878 812.259 94.0295 814.175 Q96.5319 816.587 97.4562 818.143 Q98.358 811.312 102.303 811.312 Q102.957 811.312 103.746 811.492 Q105.234 811.853 106.316 811.853 Q108.48 811.853 108.48 810.388 Q108.48 808.967 107.037 808.066 Q105.595 807.141 102.777 806.375 Q102.258 806.262 102.1 806.149 Q101.943 806.037 101.943 805.721 Q101.943 805.158 102.393 805.158 Q105.031 805.676 107.06 806.826 Q109.517 808.291 109.517 810.478 Q109.517 812.304 108.255 813.521 Q106.97 814.716 104.941 814.716 Q104.445 814.716 103.318 814.536 Q102.867 814.401 102.348 814.401 Q101.289 814.401 100.5 814.987 Q99.6881 815.573 99.2823 816.52 Q98.8765 817.467 98.6962 818.256 Q98.4933 819.022 98.4256 819.766 Q107.962 822.021 108.548 822.336 Q108.954 822.539 109.224 822.99 Q109.517 823.441 109.517 823.914 Q109.517 824.365 109.202 824.816 Q108.909 825.244 108.21 825.244 Q107.849 825.244 107.195 825.064 L80.5932 818.368 L79.6915 818.233 Q79.421 818.233 79.2857 818.346 Q79.1279 818.436 79.0152 818.977 Q78.9024 819.496 78.9024 820.533 Q78.9024 820.961 78.8799 821.164 Q78.8574 821.344 78.7446 821.502 Q78.6094 821.66 78.3388 821.66 Q77.9556 821.66 77.7527 821.502 Q77.5273 821.322 77.4822 821.186 Q77.4371 821.051 77.4145 820.781 Q77.392 820.397 77.2793 819.112 Q77.144 817.827 77.0538 816.723 Q76.9636 815.618 76.9636 815.145 Q76.9636 814.874 77.0989 814.739 Q77.2116 814.581 77.3469 814.558 L77.4596 814.536 L96.9377 819.338 Q96.1487 817.354 92.6543 814.22 Q88.5964 810.591 88.5964 807.48 Q88.5964 806.014 89.4982 805.18 Q90.3774 804.346 91.5046 804.346 Z" fill="#000000" fill-rule="evenodd" fill-opacity="1" /><path clip-path="url(#clip610)" d="M 0 0 M59.3079 735.641 Q59.6944 735.255 60.2419 735.255 Q60.7894 735.255 61.1759 735.641 Q61.5624 736.028 61.5624 736.575 L61.5624 777.863 Q61.5624 778.41 61.1759 778.797 Q60.7894 779.183 60.2419 779.183 Q59.6944 779.183 59.3079 778.797 Q58.9215 778.41 58.9215 777.863 L58.9215 736.575 Q58.9215 736.028 59.3079 735.641 Z" fill="#000000" fill-rule="evenodd" fill-opacity="1" /><path clip-path="url(#clip610)" d="M 0 0 M50.0971 679.582 Q50.548 679.582 51.6107 679.872 L76.7957 686.184 Q82.3996 687.569 86.3287 692.078 Q90.2578 696.554 90.2578 701.643 Q90.2578 704.702 88.6153 706.667 Q87.005 708.631 84.5251 708.631 Q82.3351 708.631 81.2723 707.472 Q80.2418 706.313 80.2418 704.928 Q80.2418 704.477 80.3706 703.994 Q80.4994 703.511 81.0469 702.995 Q81.5944 702.48 82.5284 702.48 Q84.042 702.48 85.2337 703.801 Q85.7812 704.445 85.91 705.057 Q86.0388 705.636 86.0388 706.635 Q86.9406 706.248 87.5525 705.54 Q88.1644 704.831 88.3898 704.026 Q88.6475 703.221 88.7119 702.706 Q88.8085 702.158 88.8085 701.643 Q88.8085 697.52 84.654 694.364 Q83.3979 693.43 82.1419 692.754 Q80.9181 692.045 79.4044 691.53 Q77.9229 691.015 77.1178 690.789 Q76.3126 690.532 74.4769 690.081 Q77.4721 693.076 77.4721 696.748 Q77.4721 698.293 77.0534 699.678 Q76.6347 701.031 75.7651 702.223 Q74.8634 703.414 73.2853 704.123 Q71.7072 704.799 69.6138 704.799 Q67.3916 704.799 64.3643 703.929 Q61.3369 703.06 55.7653 700.966 Q52.6413 699.839 51.1277 699.839 Q50.3869 699.839 49.936 700 Q49.453 700.161 49.2919 700.483 Q49.0987 700.805 49.0665 700.999 Q49.0343 701.16 49.0343 701.482 Q49.0343 703.382 50.9666 705.153 Q52.899 706.925 57.2146 708.148 Q58.0197 708.406 58.2129 708.567 Q58.4062 708.728 58.4062 709.211 Q58.374 710.016 57.7299 710.016 Q57.4722 710.016 56.4738 709.726 Q55.4432 709.437 53.9296 708.76 Q52.3837 708.052 50.9988 707.086 Q49.5818 706.119 48.5834 704.606 Q47.585 703.06 47.585 701.289 Q47.585 698.873 49.1631 697.392 Q50.709 695.878 52.9956 695.878 Q53.9296 695.878 54.7669 696.136 Q55.5721 696.361 57.7299 697.198 Q66.4254 700.58 70.6766 700.58 Q71.7072 700.58 72.5768 700.419 Q73.4141 700.226 74.2515 699.807 Q75.0566 699.388 75.5397 698.551 Q75.9906 697.681 75.9906 696.49 Q75.9906 694.976 75.2821 693.559 Q74.5413 692.11 73.5429 691.208 Q72.5446 690.274 71.7072 689.727 Q70.8376 689.147 70.3868 689.018 L58.535 686.055 L53.2532 684.735 Q50.3869 684.123 49.6784 683.833 Q49.0021 683.446 48.6478 682.77 Q48.2935 682.094 48.2935 681.514 Q48.2935 680.709 48.7766 680.161 Q49.2597 679.582 50.0971 679.582 Z" fill="#000000" fill-rule="evenodd" fill-opacity="1" /><path clip-path="url(#clip610)" d="M 0 0 M91.5046 651.922 Q92.7896 651.922 93.5561 652.711 Q94.3226 653.477 94.3226 654.447 Q94.3226 655.303 93.8266 655.754 Q93.3307 656.205 92.6994 656.205 Q92.4289 656.205 92.0907 656.092 Q91.73 655.98 91.3017 655.732 Q90.8734 655.461 90.5577 654.898 Q90.2421 654.334 90.197 653.567 Q90.0392 653.725 90.0167 653.77 Q89.7462 654.108 89.656 654.74 Q89.6109 654.83 89.6109 655.145 Q89.6109 656.701 90.7606 658.279 Q91.8878 659.835 94.0295 661.751 Q96.5319 664.163 97.4562 665.719 Q98.358 658.888 102.303 658.888 Q102.957 658.888 103.746 659.068 Q105.234 659.429 106.316 659.429 Q108.48 659.429 108.48 657.964 Q108.48 656.543 107.037 655.641 Q105.595 654.717 102.777 653.951 Q102.258 653.838 102.1 653.725 Q101.943 653.613 101.943 653.297 Q101.943 652.733 102.393 652.733 Q105.031 653.252 107.06 654.402 Q109.517 655.867 109.517 658.054 Q109.517 659.88 108.255 661.097 Q106.97 662.292 104.941 662.292 Q104.445 662.292 103.318 662.112 Q102.867 661.976 102.348 661.976 Q101.289 661.976 100.5 662.563 Q99.6881 663.149 99.2823 664.096 Q98.8765 665.042 98.6962 665.831 Q98.4933 666.598 98.4256 667.342 Q107.962 669.596 108.548 669.912 Q108.954 670.115 109.224 670.566 Q109.517 671.017 109.517 671.49 Q109.517 671.941 109.202 672.392 Q108.909 672.82 108.21 672.82 Q107.849 672.82 107.195 672.64 L80.5932 665.944 L79.6915 665.809 Q79.421 665.809 79.2857 665.922 Q79.1279 666.012 79.0152 666.553 Q78.9024 667.071 78.9024 668.108 Q78.9024 668.537 78.8799 668.74 Q78.8574 668.92 78.7446 669.078 Q78.6094 669.236 78.3388 669.236 Q77.9556 669.236 77.7527 669.078 Q77.5273 668.897 77.4822 668.762 Q77.4371 668.627 77.4145 668.356 Q77.392 667.973 77.2793 666.688 Q77.144 665.403 77.0538 664.298 Q76.9636 663.194 76.9636 662.72 Q76.9636 662.45 77.0989 662.315 Q77.2116 662.157 77.3469 662.134 L77.4596 662.112 L96.9377 666.914 Q96.1487 664.93 92.6543 661.796 Q88.5964 658.166 88.5964 655.055 Q88.5964 653.59 89.4982 652.756 Q90.3774 651.922 91.5046 651.922 Z" fill="#000000" fill-rule="evenodd" fill-opacity="1" /><path clip-path="url(#clip610)" d="M 0 0 M92.5766 645.075 Q92.2545 645.075 91.4494 644.238 Q80.6282 633.61 60.2419 633.61 Q39.7912 633.61 29.4531 643.819 Q28.2615 645.075 27.9072 645.075 Q27.2631 645.075 27.2631 644.431 Q27.2631 643.98 28.5836 642.402 Q29.904 640.792 32.9313 638.377 Q35.9587 635.929 39.6624 634.125 Q48.6478 629.778 60.2419 629.778 Q71.3851 629.778 80.3706 633.932 Q84.1387 635.703 87.2948 638.183 Q90.451 640.663 91.8359 642.306 Q93.2207 643.948 93.2207 644.431 Q93.2207 645.075 92.5766 645.075 Z" fill="#000000" fill-rule="evenodd" fill-opacity="1" /><path clip-path="url(#clip610)" d="M 0 0 M37.0737 622.879 Q36.2395 622.879 35.9915 622.812 Q35.7436 622.721 35.3603 622.361 L25.486 613.501 Q20.0303 608.654 15.2735 608.654 Q12.185 608.654 9.97565 610.277 Q7.76633 611.878 7.76633 614.831 Q7.76633 616.86 9.00625 618.573 Q10.2462 620.287 12.4555 621.076 Q12.4104 620.94 12.4104 620.467 Q12.4104 619.317 13.1318 618.686 Q13.8532 618.032 14.8226 618.032 Q16.0626 618.032 16.6712 618.844 Q17.2574 619.633 17.2574 620.422 Q17.2574 620.737 17.1898 621.166 Q17.1221 621.572 16.4909 622.225 Q15.8371 622.879 14.6874 622.879 Q11.4636 622.879 8.89353 620.444 Q6.32351 617.987 6.32351 614.245 Q6.32351 610.006 8.84845 607.234 Q11.3508 604.438 15.2735 604.438 Q16.6487 604.438 17.9112 604.866 Q19.1511 605.272 20.1205 605.836 Q21.0899 606.377 22.6454 607.865 Q24.201 609.353 25.3056 610.548 Q26.4103 611.742 28.7549 614.425 L33.5117 619.317 L33.5117 610.998 Q33.5117 606.94 33.151 606.625 Q32.4972 606.174 29.048 605.61 L29.048 604.438 L37.0737 605.746 L37.0737 622.879 Z" fill="#000000" fill-rule="evenodd" fill-opacity="1" /><path clip-path="url(#clip610)" d="M 0 0 M1039.76 27.2059 L1047.21 27.2059 L1056.53 62.6108 L1065.81 27.2059 L1074.6 27.2059 L1083.91 62.6108 L1093.19 27.2059 L1100.64 27.2059 L1088.77 72.576 L1079.98 72.576 L1070.22 35.3887 L1060.42 72.576 L1051.63 72.576 L1039.76 27.2059 Z" fill="#000000" fill-rule="evenodd" fill-opacity="1" /><path clip-path="url(#clip610)" d="M 0 0 M1137.39 28.5427 L1137.39 35.5912 Q1134.23 33.9709 1130.82 33.1607 Q1127.42 32.3505 1123.77 32.3505 Q1118.22 32.3505 1115.43 34.0519 Q1112.67 35.7533 1112.67 39.156 Q1112.67 41.7486 1114.66 43.2475 Q1116.64 44.7058 1122.64 46.0426 L1125.19 46.6097 Q1133.13 48.3111 1136.45 51.4303 Q1139.82 54.509 1139.82 60.0587 Q1139.82 66.3781 1134.79 70.0644 Q1129.81 73.7508 1121.06 73.7508 Q1117.41 73.7508 1113.44 73.0216 Q1109.52 72.3329 1105.14 70.9151 L1105.14 63.2184 Q1109.27 65.3654 1113.28 66.4591 Q1117.29 67.5124 1121.22 67.5124 Q1126.49 67.5124 1129.32 65.73 Q1132.16 63.9071 1132.16 60.6258 Q1132.16 57.5877 1130.09 55.9673 Q1128.07 54.3469 1121.14 52.8481 L1118.55 52.2405 Q1111.62 50.7821 1108.54 47.7845 Q1105.46 44.7463 1105.46 39.4801 Q1105.46 33.0797 1110 29.5959 Q1114.54 26.1121 1122.88 26.1121 Q1127.02 26.1121 1130.66 26.7198 Q1134.31 27.3274 1137.39 28.5427 Z" fill="#000000" fill-rule="evenodd" fill-opacity="1" /><path clip-path="url(#clip610)" d="M 0 0 M1180.28 28.9478 L1180.28 35.9153 Q1177.12 34.1734 1173.92 33.3227 Q1170.76 32.4315 1167.52 32.4315 Q1160.27 32.4315 1156.26 37.0496 Q1152.25 41.6271 1152.25 49.9314 Q1152.25 58.2358 1156.26 62.8538 Q1160.27 67.4314 1167.52 67.4314 Q1170.76 67.4314 1173.92 66.5807 Q1177.12 65.6895 1180.28 63.9476 L1180.28 70.8341 Q1177.17 72.2924 1173.8 73.0216 Q1170.48 73.7508 1166.71 73.7508 Q1156.47 73.7508 1150.43 67.3098 Q1144.39 60.8689 1144.39 49.9314 Q1144.39 38.832 1150.47 32.472 Q1156.59 26.1121 1167.2 26.1121 Q1170.64 26.1121 1173.92 26.8413 Q1177.21 27.5299 1180.28 28.9478 Z" fill="#000000" fill-rule="evenodd" fill-opacity="1" /><path clip-path="url(#clip610)" d="M 0 0 M1208.72 49.7694 Q1199.69 49.7694 1196.2 51.8354 Q1192.72 53.9013 1192.72 58.8839 Q1192.72 62.8538 1195.31 65.2034 Q1197.95 67.5124 1202.44 67.5124 Q1208.64 67.5124 1212.37 63.1374 Q1216.14 58.7219 1216.14 51.4303 L1216.14 49.7694 L1208.72 49.7694 M1223.59 46.6907 L1223.59 72.576 L1216.14 72.576 L1216.14 65.6895 Q1213.58 69.8214 1209.78 71.8063 Q1205.97 73.7508 1200.46 73.7508 Q1193.49 73.7508 1189.36 69.8619 Q1185.27 65.9325 1185.27 59.3701 Q1185.27 51.7138 1190.37 47.825 Q1195.52 43.9361 1205.68 43.9361 L1216.14 43.9361 L1216.14 43.2069 Q1216.14 38.0623 1212.73 35.2672 Q1209.37 32.4315 1203.25 32.4315 Q1199.36 32.4315 1195.68 33.3632 Q1191.99 34.295 1188.59 36.1584 L1188.59 29.2718 Q1192.68 27.692 1196.53 26.9223 Q1200.38 26.1121 1204.02 26.1121 Q1213.87 26.1121 1218.73 31.2163 Q1223.59 36.3204 1223.59 46.6907 Z" fill="#000000" fill-rule="evenodd" fill-opacity="1" /><path clip-path="url(#clip610)" d="M 0 0 M1231.41 9.54393 L1238.86 9.54393 L1238.86 72.576 L1231.41 72.576 L1231.41 9.54393 Z" fill="#000000" fill-rule="evenodd" fill-opacity="1" /><path clip-path="url(#clip610)" d="M 0 0 M1285.49 48.0275 L1285.49 51.6733 L1251.22 51.6733 Q1251.7 59.3701 1255.83 63.421 Q1260.01 67.4314 1267.42 67.4314 Q1271.71 67.4314 1275.72 66.3781 Q1279.77 65.3249 1283.74 63.2184 L1283.74 70.267 Q1279.73 71.9684 1275.52 72.8596 Q1271.31 73.7508 1266.97 73.7508 Q1256.12 73.7508 1249.76 67.4314 Q1243.44 61.1119 1243.44 50.3365 Q1243.44 39.1965 1249.43 32.6746 Q1255.47 26.1121 1265.68 26.1121 Q1274.83 26.1121 1280.14 32.0264 Q1285.49 37.9003 1285.49 48.0275 M1278.03 45.84 Q1277.95 39.7232 1274.59 36.0774 Q1271.27 32.4315 1265.76 32.4315 Q1259.52 32.4315 1255.75 35.9558 Q1252.03 39.4801 1251.46 45.8805 L1278.03 45.84 Z" fill="#000000" fill-rule="evenodd" fill-opacity="1" /><path clip-path="url(#clip610)" d="M 0 0 M1320.65 34.9026 L1372.58 34.9026 L1372.58 41.7081 L1320.65 41.7081 L1320.65 34.9026 M1320.65 51.4303 L1372.58 51.4303 L1372.58 58.3168 L1320.65 58.3168 L1320.65 51.4303 Z" fill="#000000" fill-rule="evenodd" fill-opacity="1" /><path clip-path="url(#clip610)" d="M 0 0 M1425.32 17.4837 Q1419 17.4837 1415.8 23.7221 Q1412.64 29.92 1412.64 42.3968 Q1412.64 54.833 1415.8 61.0714 Q1419 67.2693 1425.32 67.2693 Q1431.68 67.2693 1434.84 61.0714 Q1438.04 54.833 1438.04 42.3968 Q1438.04 29.92 1434.84 23.7221 Q1431.68 17.4837 1425.32 17.4837 M1425.32 11.0023 Q1435.49 11.0023 1440.84 19.0636 Q1446.23 27.0843 1446.23 42.3968 Q1446.23 57.6687 1440.84 65.73 Q1435.49 73.7508 1425.32 73.7508 Q1415.16 73.7508 1409.77 65.73 Q1404.42 57.6687 1404.42 42.3968 Q1404.42 27.0843 1409.77 19.0636 Q1415.16 11.0023 1425.32 11.0023 Z" fill="#000000" fill-rule="evenodd" fill-opacity="1" /><path clip-path="url(#clip610)" d="M 0 0 M1455.1 62.2867 L1463.65 62.2867 L1463.65 72.576 L1455.1 72.576 L1455.1 62.2867 Z" fill="#000000" fill-rule="evenodd" fill-opacity="1" /><path clip-path="url(#clip610)" d="M 0 0 M1479.57 65.6895 L1508.12 65.6895 L1508.12 72.576 L1469.72 72.576 L1469.72 65.6895 Q1474.38 60.8689 1482.4 52.7671 Q1490.46 44.6248 1492.53 42.2752 Q1496.46 37.8598 1498 34.8216 Q1499.58 31.7429 1499.58 28.7857 Q1499.58 23.9651 1496.17 20.927 Q1492.81 17.8888 1487.38 17.8888 Q1483.54 17.8888 1479.24 19.2256 Q1474.99 20.5624 1470.13 23.2765 L1470.13 15.0127 Q1475.07 13.0277 1479.36 12.015 Q1483.66 11.0023 1487.22 11.0023 Q1496.62 11.0023 1502.21 15.7013 Q1507.8 20.4004 1507.8 28.2591 Q1507.8 31.9859 1506.38 35.3482 Q1505 38.6699 1501.32 43.2069 Q1500.31 44.3817 1494.88 50.0125 Q1489.45 55.6027 1479.57 65.6895 Z" fill="#000000" fill-rule="evenodd" fill-opacity="1" /><polyline clip-path="url(#clip612)" style="stroke:#009af9; stroke-width:4; stroke-opacity:1; fill:none" points="
  1630.15,2755.84 1630.15,-1192.71 
  "/>
<polyline clip-path="url(#clip612)" style="stroke:#e26f46; stroke-width:4; stroke-opacity:1; fill:none" points="
  256.192,474.629 311.205,662.652 366.219,803.379 421.232,921.936 476.246,1021.56 531.259,1095.79 586.273,1154.14 641.286,1199.8 696.3,1239.06 751.313,1269.15 
  806.327,1294.23 861.34,1315.63 916.354,1332.84 971.367,1347.25 1026.38,1358.94 1081.39,1368.56 1136.41,1376.53 1191.42,1383.02 1246.43,1388.24 1301.45,1392.43 
  1356.46,1395.75 1411.48,1398.32 1466.49,1400.13 1521.5,1401.37 1576.52,1402.12 1631.53,1402.41 1686.54,1402.32 1741.56,1401.87 1796.57,1401.13 1851.58,1400.14 
  1906.6,1398.89 1961.61,1397.35 2016.62,1395.65 2071.64,1393.87 2126.65,1391.87 2181.66,1389.66 2236.68,1387.52 2291.69,1385.15 
  "/>
<polyline clip-path="url(#clip612)" style="stroke:#3da44d; stroke-width:4; stroke-opacity:1; fill:none" points="
  256.192,638.409 311.205,789.554 366.219,910.742 421.232,1004.42 476.246,1077.92 531.259,1136.25 586.273,1182.96 641.286,1221.64 696.3,1253.11 751.313,1279.32 
  806.327,1301.37 861.34,1319.09 916.354,1334.14 971.367,1346.75 1026.38,1357.21 1081.39,1365.95 1136.41,1373.18 1191.42,1379.3 1246.43,1384.27 1301.45,1388.33 
  1356.46,1391.56 1411.48,1394.1 1466.49,1396.01 1521.5,1397.38 1576.52,1398.27 1631.53,1398.74 1686.54,1398.84 1741.56,1398.63 1796.57,1398.09 1851.58,1397.31 
  1906.6,1396.31 1961.61,1395.1 2016.62,1393.65 2071.64,1392.1 2126.65,1390.34 2181.66,1388.53 2236.68,1386.57 2291.69,1384.53 
  "/>
<polyline clip-path="url(#clip612)" style="stroke:#c271d2; stroke-width:4; stroke-opacity:1; fill:none" points="
  256.192,211.908 311.205,444.366 366.219,647.872 421.232,812.281 476.246,941.005 531.259,1041.46 586.273,1119.39 641.286,1180.61 696.3,1227.89 751.313,1265.15 
  806.327,1294.46 861.34,1317.82 916.354,1336.53 971.367,1351.26 1026.38,1363.19 1081.39,1372.56 1136.41,1380.08 1191.42,1386.07 1246.43,1390.69 1301.45,1394.28 
  1356.46,1396.93 1411.48,1398.83 1466.49,1400.07 1521.5,1400.74 1576.52,1400.94 1631.53,1400.71 1686.54,1400.13 1741.56,1399.23 1796.57,1398.06 1851.58,1396.64 
  1906.6,1395.01 1961.61,1393.19 2016.62,1391.22 2071.64,1389.1 2126.65,1386.85 2181.66,1384.49 2236.68,1382.03 2291.69,1379.5 
  "/>
<polyline clip-path="url(#clip612)" style="stroke:#ac8d18; stroke-width:4; stroke-opacity:1; fill:none" points="
  256.192,160.723 311.205,401.135 366.219,594.981 421.232,749.443 476.246,872.705 531.259,971.73 586.273,1051.5 641.286,1116.47 696.3,1169.3 751.313,1212.34 
  806.327,1247.66 861.34,1276.65 916.354,1300.5 971.367,1320.19 1026.38,1336.41 1081.39,1349.85 1136.41,1360.89 1191.42,1369.98 1246.43,1377.41 1301.45,1383.41 
  1356.46,1388.24 1411.48,1392.04 1466.49,1394.96 1521.5,1397.11 1576.52,1398.6 1631.53,1399.51 1686.54,1399.9 1741.56,1399.86 1796.57,1399.41 1851.58,1398.62 
  1906.6,1397.53 1961.61,1396.16 2016.62,1394.55 2071.64,1392.73 2126.65,1390.72 2181.66,1388.54 2236.68,1386.22 2291.69,1383.76 
  "/>
<polyline clip-path="url(#clip612)" style="stroke:#00a9ad; stroke-width:4; stroke-opacity:1; fill:none" points="
  256.192,203.117 311.205,471.513 366.219,676.117 421.232,831.507 476.246,951.182 531.259,1043.76 586.273,1116.06 641.286,1173.2 696.3,1218.62 751.313,1254.9 
  806.327,1284.24 861.34,1307.89 916.354,1327.13 971.367,1342.8 1026.38,1355.58 1081.39,1365.99 1136.41,1374.44 1191.42,1381.25 1246.43,1386.7 1301.45,1390.99 
  1356.46,1394.3 1411.48,1396.77 1466.49,1398.51 1521.5,1399.62 1576.52,1400.18 1631.53,1400.27 1686.54,1399.94 1741.56,1399.24 1796.57,1398.2 1851.58,1396.89 
  1906.6,1395.32 1961.61,1393.52 2016.62,1391.51 2071.64,1389.33 2126.65,1386.99 2181.66,1384.51 2236.68,1381.91 2291.69,1379.19 
  "/>
<path clip-path="url(#clip610)" d="
M1837.81 590.705 L2280.83 590.705 L2280.83 167.345 L1837.81 167.345  Z
  " fill="#ffffff" fill-rule="evenodd" fill-opacity="1"/>
<polyline clip-path="url(#clip610)" style="stroke:#000000; stroke-width:4; stroke-opacity:1; fill:none" points="
  1837.81,590.705 2280.83,590.705 2280.83,167.345 1837.81,167.345 1837.81,590.705 
  "/>
<polyline clip-path="url(#clip610)" style="stroke:#009af9; stroke-width:4; stroke-opacity:1; fill:none" points="
  1861.79,227.825 2005.63,227.825 
  "/>
<path clip-path="url(#clip610)" d="M 0 0 M2049.42 220.489 Q2049.42 224.424 2048.15 228.851 Q2046.91 233.254 2044.94 236.814 Q2042.98 240.351 2040.4 242.693 Q2037.82 245.012 2035.36 245.012 Q2033.79 245.012 2032.62 244.146 Q2031.48 243.255 2030.84 241.78 Q2030.21 240.281 2029.91 238.641 Q2029.6 236.978 2029.6 235.175 Q2029.6 232.481 2030.19 229.553 Q2030.77 226.602 2031.76 223.932 Q2032.74 221.238 2034.12 218.802 Q2035.5 216.343 2037.03 214.563 Q2038.57 212.759 2040.31 211.705 Q2042.04 210.651 2043.66 210.651 Q2044.83 210.651 2045.76 211.167 Q2046.72 211.659 2047.33 212.525 Q2047.94 213.368 2048.36 214.376 Q2048.81 215.383 2049.02 216.554 Q2049.23 217.702 2049.32 218.662 Q2049.42 219.599 2049.42 220.489 M2046.26 217.514 Q2046.26 216.32 2046.16 215.43 Q2046.07 214.516 2045.81 213.603 Q2045.55 212.689 2044.99 212.197 Q2044.45 211.705 2043.61 211.705 Q2041.15 211.705 2038.39 216.741 Q2037.5 218.311 2036.7 220.442 Q2035.9 222.573 2035.62 223.581 Q2035.34 224.588 2034.68 227.071 L2044.71 227.071 Q2046.26 220.676 2046.26 217.514 M2044.29 228.593 L2034.31 228.593 Q2032.76 234.449 2032.76 238.103 Q2032.76 241.288 2033.42 242.623 Q2034.1 243.935 2035.36 243.935 Q2036.82 243.935 2038.17 242.483 Q2039.53 241.007 2040.91 238.337 Q2042.74 234.87 2044.29 228.593 Z" fill="#000000" fill-rule="evenodd" fill-opacity="1" /><polyline clip-path="url(#clip610)" style="stroke:#e26f46; stroke-width:4; stroke-opacity:1; fill:none" points="
  1861.79,288.305 2005.63,288.305 
  "/>
<path clip-path="url(#clip610)" d="M 0 0 M2029.6 271.025 L2036.57 271.025 L2045.39 294.543 L2054.25 271.025 L2061.22 271.025 L2061.22 305.585 L2056.66 305.585 L2056.66 275.238 L2047.75 298.942 L2043.05 298.942 L2034.14 275.238 L2034.14 305.585 L2029.6 305.585 L2029.6 271.025 Z" fill="#000000" fill-rule="evenodd" fill-opacity="1" /><path clip-path="url(#clip610)" d="M 0 0 M2081.31 284.057 L2110.99 284.057 L2110.99 287.946 L2081.31 287.946 L2081.31 284.057 M2081.31 293.502 L2110.99 293.502 L2110.99 297.437 L2081.31 297.437 L2081.31 293.502 Z" fill="#000000" fill-rule="evenodd" fill-opacity="1" /><path clip-path="url(#clip610)" d="M 0 0 M2135.16 301.65 L2151.48 301.65 L2151.48 305.585 L2129.53 305.585 L2129.53 301.65 Q2132.19 298.895 2136.78 294.266 Q2141.38 289.613 2142.56 288.27 Q2144.81 285.747 2145.69 284.011 Q2146.59 282.252 2146.59 280.562 Q2146.59 277.807 2144.65 276.071 Q2142.73 274.335 2139.62 274.335 Q2137.43 274.335 2134.97 275.099 Q2132.54 275.863 2129.76 277.414 L2129.76 272.692 Q2132.59 271.557 2135.04 270.979 Q2137.49 270.4 2139.53 270.4 Q2144.9 270.4 2148.1 273.085 Q2151.29 275.77 2151.29 280.261 Q2151.29 282.391 2150.48 284.312 Q2149.69 286.21 2147.59 288.803 Q2147.01 289.474 2143.91 292.692 Q2140.8 295.886 2135.16 301.65 Z" fill="#000000" fill-rule="evenodd" fill-opacity="1" /><polyline clip-path="url(#clip610)" style="stroke:#3da44d; stroke-width:4; stroke-opacity:1; fill:none" points="
  1861.79,348.785 2005.63,348.785 
  "/>
<path clip-path="url(#clip610)" d="M 0 0 M2029.6 331.505 L2036.57 331.505 L2045.39 355.023 L2054.25 331.505 L2061.22 331.505 L2061.22 366.065 L2056.66 366.065 L2056.66 335.718 L2047.75 359.422 L2043.05 359.422 L2034.14 335.718 L2034.14 366.065 L2029.6 366.065 L2029.6 331.505 Z" fill="#000000" fill-rule="evenodd" fill-opacity="1" /><path clip-path="url(#clip610)" d="M 0 0 M2081.31 344.537 L2110.99 344.537 L2110.99 348.426 L2081.31 348.426 L2081.31 344.537 M2081.31 353.982 L2110.99 353.982 L2110.99 357.917 L2081.31 357.917 L2081.31 353.982 Z" fill="#000000" fill-rule="evenodd" fill-opacity="1" /><path clip-path="url(#clip610)" d="M 0 0 M2131.94 362.13 L2139.58 362.13 L2139.58 335.764 L2131.27 337.431 L2131.27 333.172 L2139.53 331.505 L2144.21 331.505 L2144.21 362.13 L2151.85 362.13 L2151.85 366.065 L2131.94 366.065 L2131.94 362.13 Z" fill="#000000" fill-rule="evenodd" fill-opacity="1" /><path clip-path="url(#clip610)" d="M 0 0 M2166.92 334.584 Q2163.3 334.584 2161.48 338.148 Q2159.67 341.69 2159.67 348.82 Q2159.67 355.926 2161.48 359.491 Q2163.3 363.033 2166.92 363.033 Q2170.55 363.033 2172.36 359.491 Q2174.18 355.926 2174.18 348.82 Q2174.18 341.69 2172.36 338.148 Q2170.55 334.584 2166.92 334.584 M2166.92 330.88 Q2172.73 330.88 2175.78 335.486 Q2178.86 340.07 2178.86 348.82 Q2178.86 357.547 2175.78 362.153 Q2172.73 366.736 2166.92 366.736 Q2161.11 366.736 2158.03 362.153 Q2154.97 357.547 2154.97 348.82 Q2154.97 340.07 2158.03 335.486 Q2161.11 330.88 2166.92 330.88 Z" fill="#000000" fill-rule="evenodd" fill-opacity="1" /><polyline clip-path="url(#clip610)" style="stroke:#c271d2; stroke-width:4; stroke-opacity:1; fill:none" points="
  1861.79,409.265 2005.63,409.265 
  "/>
<path clip-path="url(#clip610)" d="M 0 0 M2029.6 391.985 L2036.57 391.985 L2045.39 415.503 L2054.25 391.985 L2061.22 391.985 L2061.22 426.545 L2056.66 426.545 L2056.66 396.198 L2047.75 419.902 L2043.05 419.902 L2034.14 396.198 L2034.14 426.545 L2029.6 426.545 L2029.6 391.985 Z" fill="#000000" fill-rule="evenodd" fill-opacity="1" /><path clip-path="url(#clip610)" d="M 0 0 M2081.31 405.017 L2110.99 405.017 L2110.99 408.906 L2081.31 408.906 L2081.31 405.017 M2081.31 414.462 L2110.99 414.462 L2110.99 418.397 L2081.31 418.397 L2081.31 414.462 Z" fill="#000000" fill-rule="evenodd" fill-opacity="1" /><path clip-path="url(#clip610)" d="M 0 0 M2131.94 422.61 L2139.58 422.61 L2139.58 396.244 L2131.27 397.911 L2131.27 393.652 L2139.53 391.985 L2144.21 391.985 L2144.21 422.61 L2151.85 422.61 L2151.85 426.545 L2131.94 426.545 L2131.94 422.61 Z" fill="#000000" fill-rule="evenodd" fill-opacity="1" /><path clip-path="url(#clip610)" d="M 0 0 M2166.92 395.064 Q2163.3 395.064 2161.48 398.628 Q2159.67 402.17 2159.67 409.3 Q2159.67 416.406 2161.48 419.971 Q2163.3 423.513 2166.92 423.513 Q2170.55 423.513 2172.36 419.971 Q2174.18 416.406 2174.18 409.3 Q2174.18 402.17 2172.36 398.628 Q2170.55 395.064 2166.92 395.064 M2166.92 391.36 Q2172.73 391.36 2175.78 395.966 Q2178.86 400.55 2178.86 409.3 Q2178.86 418.027 2175.78 422.633 Q2172.73 427.216 2166.92 427.216 Q2161.11 427.216 2158.03 422.633 Q2154.97 418.027 2154.97 409.3 Q2154.97 400.55 2158.03 395.966 Q2161.11 391.36 2166.92 391.36 Z" fill="#000000" fill-rule="evenodd" fill-opacity="1" /><path clip-path="url(#clip610)" d="M 0 0 M2193.93 395.064 Q2190.32 395.064 2188.49 398.628 Q2186.68 402.17 2186.68 409.3 Q2186.68 416.406 2188.49 419.971 Q2190.32 423.513 2193.93 423.513 Q2197.56 423.513 2199.37 419.971 Q2201.2 416.406 2201.2 409.3 Q2201.2 402.17 2199.37 398.628 Q2197.56 395.064 2193.93 395.064 M2193.93 391.36 Q2199.74 391.36 2202.8 395.966 Q2205.87 400.55 2205.87 409.3 Q2205.87 418.027 2202.8 422.633 Q2199.74 427.216 2193.93 427.216 Q2188.12 427.216 2185.04 422.633 Q2181.99 418.027 2181.99 409.3 Q2181.99 400.55 2185.04 395.966 Q2188.12 391.36 2193.93 391.36 Z" fill="#000000" fill-rule="evenodd" fill-opacity="1" /><polyline clip-path="url(#clip610)" style="stroke:#ac8d18; stroke-width:4; stroke-opacity:1; fill:none" points="
  1861.79,469.745 2005.63,469.745 
  "/>
<path clip-path="url(#clip610)" d="M 0 0 M2029.6 452.465 L2036.57 452.465 L2045.39 475.983 L2054.25 452.465 L2061.22 452.465 L2061.22 487.025 L2056.66 487.025 L2056.66 456.678 L2047.75 480.382 L2043.05 480.382 L2034.14 456.678 L2034.14 487.025 L2029.6 487.025 L2029.6 452.465 Z" fill="#000000" fill-rule="evenodd" fill-opacity="1" /><path clip-path="url(#clip610)" d="M 0 0 M2081.31 465.497 L2110.99 465.497 L2110.99 469.386 L2081.31 469.386 L2081.31 465.497 M2081.31 474.942 L2110.99 474.942 L2110.99 478.877 L2081.31 478.877 L2081.31 474.942 Z" fill="#000000" fill-rule="evenodd" fill-opacity="1" /><path clip-path="url(#clip610)" d="M 0 0 M2131.94 483.09 L2139.58 483.09 L2139.58 456.724 L2131.27 458.391 L2131.27 454.132 L2139.53 452.465 L2144.21 452.465 L2144.21 483.09 L2151.85 483.09 L2151.85 487.025 L2131.94 487.025 L2131.94 483.09 Z" fill="#000000" fill-rule="evenodd" fill-opacity="1" /><path clip-path="url(#clip610)" d="M 0 0 M2166.92 455.544 Q2163.3 455.544 2161.48 459.108 Q2159.67 462.65 2159.67 469.78 Q2159.67 476.886 2161.48 480.451 Q2163.3 483.993 2166.92 483.993 Q2170.55 483.993 2172.36 480.451 Q2174.18 476.886 2174.18 469.78 Q2174.18 462.65 2172.36 459.108 Q2170.55 455.544 2166.92 455.544 M2166.92 451.84 Q2172.73 451.84 2175.78 456.446 Q2178.86 461.03 2178.86 469.78 Q2178.86 478.507 2175.78 483.113 Q2172.73 487.696 2166.92 487.696 Q2161.11 487.696 2158.03 483.113 Q2154.97 478.507 2154.97 469.78 Q2154.97 461.03 2158.03 456.446 Q2161.11 451.84 2166.92 451.84 Z" fill="#000000" fill-rule="evenodd" fill-opacity="1" /><path clip-path="url(#clip610)" d="M 0 0 M2193.93 455.544 Q2190.32 455.544 2188.49 459.108 Q2186.68 462.65 2186.68 469.78 Q2186.68 476.886 2188.49 480.451 Q2190.32 483.993 2193.93 483.993 Q2197.56 483.993 2199.37 480.451 Q2201.2 476.886 2201.2 469.78 Q2201.2 462.65 2199.37 459.108 Q2197.56 455.544 2193.93 455.544 M2193.93 451.84 Q2199.74 451.84 2202.8 456.446 Q2205.87 461.03 2205.87 469.78 Q2205.87 478.507 2202.8 483.113 Q2199.74 487.696 2193.93 487.696 Q2188.12 487.696 2185.04 483.113 Q2181.99 478.507 2181.99 469.78 Q2181.99 461.03 2185.04 456.446 Q2188.12 451.84 2193.93 451.84 Z" fill="#000000" fill-rule="evenodd" fill-opacity="1" /><path clip-path="url(#clip610)" d="M 0 0 M2220.94 455.544 Q2217.33 455.544 2215.5 459.108 Q2213.7 462.65 2213.7 469.78 Q2213.7 476.886 2215.5 480.451 Q2217.33 483.993 2220.94 483.993 Q2224.58 483.993 2226.38 480.451 Q2228.21 476.886 2228.21 469.78 Q2228.21 462.65 2226.38 459.108 Q2224.58 455.544 2220.94 455.544 M2220.94 451.84 Q2226.75 451.84 2229.81 456.446 Q2232.89 461.03 2232.89 469.78 Q2232.89 478.507 2229.81 483.113 Q2226.75 487.696 2220.94 487.696 Q2215.13 487.696 2212.05 483.113 Q2209 478.507 2209 469.78 Q2209 461.03 2212.05 456.446 Q2215.13 451.84 2220.94 451.84 Z" fill="#000000" fill-rule="evenodd" fill-opacity="1" /><polyline clip-path="url(#clip610)" style="stroke:#00a9ad; stroke-width:4; stroke-opacity:1; fill:none" points="
  1861.79,530.225 2005.63,530.225 
  "/>
<path clip-path="url(#clip610)" d="M 0 0 M2029.6 512.945 L2036.57 512.945 L2045.39 536.463 L2054.25 512.945 L2061.22 512.945 L2061.22 547.505 L2056.66 547.505 L2056.66 517.158 L2047.75 540.862 L2043.05 540.862 L2034.14 517.158 L2034.14 547.505 L2029.6 547.505 L2029.6 512.945 Z" fill="#000000" fill-rule="evenodd" fill-opacity="1" /><path clip-path="url(#clip610)" d="M 0 0 M2081.31 525.977 L2110.99 525.977 L2110.99 529.866 L2081.31 529.866 L2081.31 525.977 M2081.31 535.422 L2110.99 535.422 L2110.99 539.357 L2081.31 539.357 L2081.31 535.422 Z" fill="#000000" fill-rule="evenodd" fill-opacity="1" /><path clip-path="url(#clip610)" d="M 0 0 M2135.16 543.57 L2151.48 543.57 L2151.48 547.505 L2129.53 547.505 L2129.53 543.57 Q2132.19 540.815 2136.78 536.186 Q2141.38 531.533 2142.56 530.19 Q2144.81 527.667 2145.69 525.931 Q2146.59 524.172 2146.59 522.482 Q2146.59 519.727 2144.65 517.991 Q2142.73 516.255 2139.62 516.255 Q2137.43 516.255 2134.97 517.019 Q2132.54 517.783 2129.76 519.334 L2129.76 514.612 Q2132.59 513.477 2135.04 512.899 Q2137.49 512.32 2139.53 512.32 Q2144.9 512.32 2148.1 515.005 Q2151.29 517.69 2151.29 522.181 Q2151.29 524.311 2150.48 526.232 Q2149.69 528.13 2147.59 530.723 Q2147.01 531.394 2143.91 534.612 Q2140.8 537.806 2135.16 543.57 Z" fill="#000000" fill-rule="evenodd" fill-opacity="1" /><path clip-path="url(#clip610)" d="M 0 0 M2166.55 516.024 Q2162.93 516.024 2161.11 519.588 Q2159.3 523.13 2159.3 530.26 Q2159.3 537.366 2161.11 540.931 Q2162.93 544.473 2166.55 544.473 Q2170.18 544.473 2171.99 540.931 Q2173.81 537.366 2173.81 530.26 Q2173.81 523.13 2171.99 519.588 Q2170.18 516.024 2166.55 516.024 M2166.55 512.32 Q2172.36 512.32 2175.41 516.926 Q2178.49 521.51 2178.49 530.26 Q2178.49 538.987 2175.41 543.593 Q2172.36 548.176 2166.55 548.176 Q2160.74 548.176 2157.66 543.593 Q2154.6 538.987 2154.6 530.26 Q2154.6 521.51 2157.66 516.926 Q2160.74 512.32 2166.55 512.32 Z" fill="#000000" fill-rule="evenodd" fill-opacity="1" /><path clip-path="url(#clip610)" d="M 0 0 M2193.56 516.024 Q2189.95 516.024 2188.12 519.588 Q2186.31 523.13 2186.31 530.26 Q2186.31 537.366 2188.12 540.931 Q2189.95 544.473 2193.56 544.473 Q2197.19 544.473 2199 540.931 Q2200.83 537.366 2200.83 530.26 Q2200.83 523.13 2199 519.588 Q2197.19 516.024 2193.56 516.024 M2193.56 512.32 Q2199.37 512.32 2202.42 516.926 Q2205.5 521.51 2205.5 530.26 Q2205.5 538.987 2202.42 543.593 Q2199.37 548.176 2193.56 548.176 Q2187.75 548.176 2184.67 543.593 Q2181.61 538.987 2181.61 530.26 Q2181.61 521.51 2184.67 516.926 Q2187.75 512.32 2193.56 512.32 Z" fill="#000000" fill-rule="evenodd" fill-opacity="1" /><path clip-path="url(#clip610)" d="M 0 0 M2220.57 516.024 Q2216.96 516.024 2215.13 519.588 Q2213.33 523.13 2213.33 530.26 Q2213.33 537.366 2215.13 540.931 Q2216.96 544.473 2220.57 544.473 Q2224.21 544.473 2226.01 540.931 Q2227.84 537.366 2227.84 530.26 Q2227.84 523.13 2226.01 519.588 Q2224.21 516.024 2220.57 516.024 M2220.57 512.32 Q2226.38 512.32 2229.44 516.926 Q2232.52 521.51 2232.52 530.26 Q2232.52 538.987 2229.44 543.593 Q2226.38 548.176 2220.57 548.176 Q2214.76 548.176 2211.68 543.593 Q2208.63 538.987 2208.63 530.26 Q2208.63 521.51 2211.68 516.926 Q2214.76 512.32 2220.57 512.32 Z" fill="#000000" fill-rule="evenodd" fill-opacity="1" /></svg>
