<?xml version="1.0" encoding="utf-8"?>
<svg xmlns="http://www.w3.org/2000/svg" xmlns:xlink="http://www.w3.org/1999/xlink" width="600" height="400" viewBox="0 0 2400 1600">
<defs>
  <clipPath id="clip190">
    <rect x="0" y="0" width="2400" height="1600"/>
  </clipPath>
</defs>
<path clip-path="url(#clip190)" d="
M0 1600 L2400 1600 L2400 0 L0 0  Z
  " fill="#ffffff" fill-rule="evenodd" fill-opacity="1"/>
<defs>
  <clipPath id="clip191">
    <rect x="480" y="0" width="1681" height="1600"/>
  </clipPath>
</defs>
<defs>
  <clipPath id="clip192">
    <rect x="268" y="123" width="2085" height="1301"/>
  </clipPath>
</defs>
<path clip-path="url(#clip190)" d="
M214.835 1423.18 L2352.76 1423.18 L2352.76 123.472 L214.835 123.472  Z
  " fill="#ffffff" fill-rule="evenodd" fill-opacity="1"/>
<defs>
  <clipPath id="clip193">
    <rect x="214" y="123" width="2139" height="1301"/>
  </clipPath>
</defs>
<polyline clip-path="url(#clip193)" style="stroke:#000000; stroke-width:2; stroke-opacity:0.1; fill:none" points="
  255.173,1423.18 255.173,123.472 
  "/>
<polyline clip-path="url(#clip193)" style="stroke:#000000; stroke-width:2; stroke-opacity:0.1; fill:none" points="
  759.4,1423.18 759.4,123.472 
  "/>
<polyline clip-path="url(#clip193)" style="stroke:#000000; stroke-width:2; stroke-opacity:0.1; fill:none" points="
  1263.63,1423.18 1263.63,123.472 
  "/>
<polyline clip-path="url(#clip193)" style="stroke:#000000; stroke-width:2; stroke-opacity:0.1; fill:none" points="
  1767.85,1423.18 1767.85,123.472 
  "/>
<polyline clip-path="url(#clip193)" style="stroke:#000000; stroke-width:2; stroke-opacity:0.1; fill:none" points="
  2272.08,1423.18 2272.08,123.472 
  "/>
<polyline clip-path="url(#clip190)" style="stroke:#000000; stroke-width:4; stroke-opacity:1; fill:none" points="
  214.835,1423.18 2352.76,1423.18 
  "/>
<polyline clip-path="url(#clip190)" style="stroke:#000000; stroke-width:4; stroke-opacity:1; fill:none" points="
  255.173,1423.18 255.173,1407.58 
  "/>
<polyline clip-path="url(#clip190)" style="stroke:#000000; stroke-width:4; stroke-opacity:1; fill:none" points="
  759.4,1423.18 759.4,1407.58 
  "/>
<polyline clip-path="url(#clip190)" style="stroke:#000000; stroke-width:4; stroke-opacity:1; fill:none" points="
  1263.63,1423.18 1263.63,1407.58 
  "/>
<polyline clip-path="url(#clip190)" style="stroke:#000000; stroke-width:4; stroke-opacity:1; fill:none" points="
  1767.85,1423.18 1767.85,1407.58 
  "/>
<polyline clip-path="url(#clip190)" style="stroke:#000000; stroke-width:4; stroke-opacity:1; fill:none" points="
  2272.08,1423.18 2272.08,1407.58 
  "/>
<path clip-path="url(#clip190)" d="M 0 0 M255.173 1452.37 Q251.562 1452.37 249.733 1455.94 Q247.928 1459.48 247.928 1466.61 Q247.928 1473.71 249.733 1477.28 Q251.562 1480.82 255.173 1480.82 Q258.807 1480.82 260.613 1477.28 Q262.441 1473.71 262.441 1466.61 Q262.441 1459.48 260.613 1455.94 Q258.807 1452.37 255.173 1452.37 M255.173 1448.67 Q260.983 1448.67 264.039 1453.27 Q267.117 1457.86 267.117 1466.61 Q267.117 1475.33 264.039 1479.94 Q260.983 1484.52 255.173 1484.52 Q249.363 1484.52 246.284 1479.94 Q243.229 1475.33 243.229 1466.61 Q243.229 1457.86 246.284 1453.27 Q249.363 1448.67 255.173 1448.67 Z" fill="#000000" fill-rule="evenodd" fill-opacity="1" /><path clip-path="url(#clip190)" d="M 0 0 M741.043 1479.92 L757.363 1479.92 L757.363 1483.85 L735.418 1483.85 L735.418 1479.92 Q738.08 1477.16 742.664 1472.53 Q747.27 1467.88 748.451 1466.54 Q750.696 1464.01 751.576 1462.28 Q752.478 1460.52 752.478 1458.83 Q752.478 1456.07 750.534 1454.34 Q748.613 1452.6 745.511 1452.6 Q743.312 1452.6 740.858 1453.37 Q738.428 1454.13 735.65 1455.68 L735.65 1450.96 Q738.474 1449.82 740.928 1449.25 Q743.381 1448.67 745.418 1448.67 Q750.789 1448.67 753.983 1451.35 Q757.177 1454.04 757.177 1458.53 Q757.177 1460.66 756.367 1462.58 Q755.58 1464.48 753.474 1467.07 Q752.895 1467.74 749.793 1470.96 Q746.691 1474.15 741.043 1479.92 Z" fill="#000000" fill-rule="evenodd" fill-opacity="1" /><path clip-path="url(#clip190)" d="M 0 0 M762.478 1449.29 L780.835 1449.29 L780.835 1453.23 L766.761 1453.23 L766.761 1461.7 Q767.779 1461.35 768.798 1461.19 Q769.816 1461 770.835 1461 Q776.622 1461 780.001 1464.18 Q783.381 1467.35 783.381 1472.76 Q783.381 1478.34 779.909 1481.44 Q776.437 1484.52 770.117 1484.52 Q767.941 1484.52 765.673 1484.15 Q763.427 1483.78 761.02 1483.04 L761.02 1478.34 Q763.103 1479.48 765.326 1480.03 Q767.548 1480.59 770.025 1480.59 Q774.029 1480.59 776.367 1478.48 Q778.705 1476.38 778.705 1472.76 Q778.705 1469.15 776.367 1467.05 Q774.029 1464.94 770.025 1464.94 Q768.15 1464.94 766.275 1465.36 Q764.423 1465.77 762.478 1466.65 L762.478 1449.29 Z" fill="#000000" fill-rule="evenodd" fill-opacity="1" /><path clip-path="url(#clip190)" d="M 0 0 M1240.4 1449.29 L1258.75 1449.29 L1258.75 1453.23 L1244.68 1453.23 L1244.68 1461.7 Q1245.7 1461.35 1246.72 1461.19 Q1247.74 1461 1248.75 1461 Q1254.54 1461 1257.92 1464.18 Q1261.3 1467.35 1261.3 1472.76 Q1261.3 1478.34 1257.83 1481.44 Q1254.36 1484.52 1248.04 1484.52 Q1245.86 1484.52 1243.59 1484.15 Q1241.35 1483.78 1238.94 1483.04 L1238.94 1478.34 Q1241.02 1479.48 1243.24 1480.03 Q1245.47 1480.59 1247.94 1480.59 Q1251.95 1480.59 1254.29 1478.48 Q1256.62 1476.38 1256.62 1472.76 Q1256.62 1469.15 1254.29 1467.05 Q1251.95 1464.94 1247.94 1464.94 Q1246.07 1464.94 1244.19 1465.36 Q1242.34 1465.77 1240.4 1466.65 L1240.4 1449.29 Z" fill="#000000" fill-rule="evenodd" fill-opacity="1" /><path clip-path="url(#clip190)" d="M 0 0 M1276.37 1452.37 Q1272.76 1452.37 1270.93 1455.94 Q1269.12 1459.48 1269.12 1466.61 Q1269.12 1473.71 1270.93 1477.28 Q1272.76 1480.82 1276.37 1480.82 Q1280 1480.82 1281.81 1477.28 Q1283.64 1473.71 1283.64 1466.61 Q1283.64 1459.48 1281.81 1455.94 Q1280 1452.37 1276.37 1452.37 M1276.37 1448.67 Q1282.18 1448.67 1285.23 1453.27 Q1288.31 1457.86 1288.31 1466.61 Q1288.31 1475.33 1285.23 1479.94 Q1282.18 1484.52 1276.37 1484.52 Q1270.56 1484.52 1267.48 1479.94 Q1264.42 1475.33 1264.42 1466.61 Q1264.42 1457.86 1267.48 1453.27 Q1270.56 1448.67 1276.37 1448.67 Z" fill="#000000" fill-rule="evenodd" fill-opacity="1" /><path clip-path="url(#clip190)" d="M 0 0 M1743.73 1449.29 L1765.95 1449.29 L1765.95 1451.28 L1753.41 1483.85 L1748.52 1483.85 L1760.33 1453.23 L1743.73 1453.23 L1743.73 1449.29 Z" fill="#000000" fill-rule="evenodd" fill-opacity="1" /><path clip-path="url(#clip190)" d="M 0 0 M1771.07 1449.29 L1789.43 1449.29 L1789.43 1453.23 L1775.35 1453.23 L1775.35 1461.7 Q1776.37 1461.35 1777.39 1461.19 Q1778.41 1461 1779.43 1461 Q1785.21 1461 1788.59 1464.18 Q1791.97 1467.35 1791.97 1472.76 Q1791.97 1478.34 1788.5 1481.44 Q1785.03 1484.52 1778.71 1484.52 Q1776.53 1484.52 1774.26 1484.15 Q1772.02 1483.78 1769.61 1483.04 L1769.61 1478.34 Q1771.7 1479.48 1773.92 1480.03 Q1776.14 1480.59 1778.62 1480.59 Q1782.62 1480.59 1784.96 1478.48 Q1787.3 1476.38 1787.3 1472.76 Q1787.3 1469.15 1784.96 1467.05 Q1782.62 1464.94 1778.62 1464.94 Q1776.74 1464.94 1774.87 1465.36 Q1773.01 1465.77 1771.07 1466.65 L1771.07 1449.29 Z" fill="#000000" fill-rule="evenodd" fill-opacity="1" /><path clip-path="url(#clip190)" d="M 0 0 M2235.45 1479.92 L2243.09 1479.92 L2243.09 1453.55 L2234.78 1455.22 L2234.78 1450.96 L2243.04 1449.29 L2247.72 1449.29 L2247.72 1479.92 L2255.36 1479.92 L2255.36 1483.85 L2235.45 1483.85 L2235.45 1479.92 Z" fill="#000000" fill-rule="evenodd" fill-opacity="1" /><path clip-path="url(#clip190)" d="M 0 0 M2270.42 1452.37 Q2266.81 1452.37 2264.98 1455.94 Q2263.18 1459.48 2263.18 1466.61 Q2263.18 1473.71 2264.98 1477.28 Q2266.81 1480.82 2270.42 1480.82 Q2274.06 1480.82 2275.86 1477.28 Q2277.69 1473.71 2277.69 1466.61 Q2277.69 1459.48 2275.86 1455.94 Q2274.06 1452.37 2270.42 1452.37 M2270.42 1448.67 Q2276.23 1448.67 2279.29 1453.27 Q2282.37 1457.86 2282.37 1466.61 Q2282.37 1475.33 2279.29 1479.94 Q2276.23 1484.52 2270.42 1484.52 Q2264.61 1484.52 2261.54 1479.94 Q2258.48 1475.33 2258.48 1466.61 Q2258.48 1457.86 2261.54 1453.27 Q2264.61 1448.67 2270.42 1448.67 Z" fill="#000000" fill-rule="evenodd" fill-opacity="1" /><path clip-path="url(#clip190)" d="M 0 0 M2297.44 1452.37 Q2293.83 1452.37 2292 1455.94 Q2290.19 1459.48 2290.19 1466.61 Q2290.19 1473.71 2292 1477.28 Q2293.83 1480.82 2297.44 1480.82 Q2301.07 1480.82 2302.88 1477.28 Q2304.71 1473.71 2304.71 1466.61 Q2304.71 1459.48 2302.88 1455.94 Q2301.07 1452.37 2297.44 1452.37 M2297.44 1448.67 Q2303.25 1448.67 2306.3 1453.27 Q2309.38 1457.86 2309.38 1466.61 Q2309.38 1475.33 2306.3 1479.94 Q2303.25 1484.52 2297.44 1484.52 Q2291.63 1484.52 2288.55 1479.94 Q2285.49 1475.33 2285.49 1466.61 Q2285.49 1457.86 2288.55 1453.27 Q2291.63 1448.67 2297.44 1448.67 Z" fill="#000000" fill-rule="evenodd" fill-opacity="1" /><path clip-path="url(#clip190)" d="M 0 0 M1119.18 1522.27 L1119.18 1532.4 L1131.24 1532.4 L1131.24 1536.95 L1119.18 1536.95 L1119.18 1556.3 Q1119.18 1560.66 1120.36 1561.9 Q1121.57 1563.14 1125.23 1563.14 L1131.24 1563.14 L1131.24 1568.04 L1125.23 1568.04 Q1118.45 1568.04 1115.87 1565.53 Q1113.29 1562.98 1113.29 1556.3 L1113.29 1536.95 L1108.99 1536.95 L1108.99 1532.4 L1113.29 1532.4 L1113.29 1522.27 L1119.18 1522.27 Z" fill="#000000" fill-rule="evenodd" fill-opacity="1" /><path clip-path="url(#clip190)" d="M 0 0 M1137.38 1532.4 L1143.24 1532.4 L1143.24 1568.04 L1137.38 1568.04 L1137.38 1532.4 M1137.38 1518.52 L1143.24 1518.52 L1143.24 1525.93 L1137.38 1525.93 L1137.38 1518.52 Z" fill="#000000" fill-rule="evenodd" fill-opacity="1" /><path clip-path="url(#clip190)" d="M 0 0 M1177.14 1539.24 Q1179.33 1535.29 1182.39 1533.41 Q1185.45 1531.54 1189.58 1531.54 Q1195.15 1531.54 1198.18 1535.45 Q1201.2 1539.33 1201.2 1546.53 L1201.2 1568.04 L1195.31 1568.04 L1195.31 1546.72 Q1195.31 1541.59 1193.5 1539.11 Q1191.68 1536.63 1187.96 1536.63 Q1183.41 1536.63 1180.77 1539.65 Q1178.12 1542.68 1178.12 1547.9 L1178.12 1568.04 L1172.24 1568.04 L1172.24 1546.72 Q1172.24 1541.56 1170.42 1539.11 Q1168.61 1536.63 1164.82 1536.63 Q1160.33 1536.63 1157.69 1539.68 Q1155.05 1542.71 1155.05 1547.9 L1155.05 1568.04 L1149.16 1568.04 L1149.16 1532.4 L1155.05 1532.4 L1155.05 1537.93 Q1157.05 1534.66 1159.86 1533.1 Q1162.66 1531.54 1166.51 1531.54 Q1170.39 1531.54 1173.1 1533.51 Q1175.83 1535.48 1177.14 1539.24 Z" fill="#000000" fill-rule="evenodd" fill-opacity="1" /><path clip-path="url(#clip190)" d="M 0 0 M1237.83 1548.76 L1237.83 1551.62 L1210.91 1551.62 Q1211.29 1557.67 1214.54 1560.85 Q1217.81 1564 1223.64 1564 Q1227.01 1564 1230.16 1563.17 Q1233.35 1562.35 1236.47 1560.69 L1236.47 1566.23 Q1233.32 1567.57 1230.01 1568.27 Q1226.69 1568.97 1223.29 1568.97 Q1214.76 1568.97 1209.76 1564 Q1204.8 1559.04 1204.8 1550.57 Q1204.8 1541.82 1209.51 1536.69 Q1214.25 1531.54 1222.27 1531.54 Q1229.46 1531.54 1233.63 1536.18 Q1237.83 1540.8 1237.83 1548.76 M1231.98 1547.04 Q1231.91 1542.23 1229.27 1539.37 Q1226.66 1536.5 1222.33 1536.5 Q1217.43 1536.5 1214.47 1539.27 Q1211.54 1542.04 1211.1 1547.07 L1231.98 1547.04 Z" fill="#000000" fill-rule="evenodd" fill-opacity="1" /><path clip-path="url(#clip190)" d="M 0 0 M1278.77 1518.58 Q1274.5 1525.9 1272.43 1533.06 Q1270.36 1540.23 1270.36 1547.58 Q1270.36 1554.93 1272.43 1562.16 Q1274.53 1569.35 1278.77 1576.64 L1273.67 1576.64 Q1268.9 1569.16 1266.51 1561.93 Q1264.16 1554.71 1264.16 1547.58 Q1264.16 1540.48 1266.51 1533.29 Q1268.87 1526.09 1273.67 1518.58 L1278.77 1518.58 Z" fill="#000000" fill-rule="evenodd" fill-opacity="1" /><path clip-path="url(#clip190)" d="M 0 0 M1307.63 1533.45 L1307.63 1538.98 Q1305.15 1537.71 1302.48 1537.07 Q1299.81 1536.44 1296.94 1536.44 Q1292.58 1536.44 1290.38 1537.77 Q1288.22 1539.11 1288.22 1541.79 Q1288.22 1543.82 1289.78 1545 Q1291.34 1546.15 1296.05 1547.2 L1298.05 1547.64 Q1304.29 1548.98 1306.9 1551.43 Q1309.54 1553.85 1309.54 1558.21 Q1309.54 1563.17 1305.6 1566.07 Q1301.68 1568.97 1294.81 1568.97 Q1291.94 1568.97 1288.82 1568.39 Q1285.74 1567.85 1282.3 1566.74 L1282.3 1560.69 Q1285.55 1562.38 1288.7 1563.24 Q1291.85 1564.07 1294.94 1564.07 Q1299.07 1564.07 1301.3 1562.66 Q1303.53 1561.23 1303.53 1558.65 Q1303.53 1556.27 1301.91 1554.99 Q1300.31 1553.72 1294.87 1552.54 L1292.83 1552.07 Q1287.39 1550.92 1284.97 1548.56 Q1282.55 1546.18 1282.55 1542.04 Q1282.55 1537.01 1286.12 1534.27 Q1289.68 1531.54 1296.24 1531.54 Q1299.49 1531.54 1302.35 1532.01 Q1305.22 1532.49 1307.63 1533.45 Z" fill="#000000" fill-rule="evenodd" fill-opacity="1" /><path clip-path="url(#clip190)" d="M 0 0 M1321.48 1522.27 L1321.48 1532.4 L1333.54 1532.4 L1333.54 1536.95 L1321.48 1536.95 L1321.48 1556.3 Q1321.48 1560.66 1322.66 1561.9 Q1323.87 1563.14 1327.53 1563.14 L1333.54 1563.14 L1333.54 1568.04 L1327.53 1568.04 Q1320.75 1568.04 1318.17 1565.53 Q1315.59 1562.98 1315.59 1556.3 L1315.59 1536.95 L1311.3 1536.95 L1311.3 1532.4 L1315.59 1532.4 L1315.59 1522.27 L1321.48 1522.27 Z" fill="#000000" fill-rule="evenodd" fill-opacity="1" /><path clip-path="url(#clip190)" d="M 0 0 M1370.18 1548.76 L1370.18 1551.62 L1343.25 1551.62 Q1343.63 1557.67 1346.88 1560.85 Q1350.16 1564 1355.98 1564 Q1359.36 1564 1362.51 1563.17 Q1365.69 1562.35 1368.81 1560.69 L1368.81 1566.23 Q1365.66 1567.57 1362.35 1568.27 Q1359.04 1568.97 1355.63 1568.97 Q1347.1 1568.97 1342.11 1564 Q1337.14 1559.04 1337.14 1550.57 Q1337.14 1541.82 1341.85 1536.69 Q1346.59 1531.54 1354.61 1531.54 Q1361.81 1531.54 1365.98 1536.18 Q1370.18 1540.8 1370.18 1548.76 M1364.32 1547.04 Q1364.26 1542.23 1361.62 1539.37 Q1359.01 1536.5 1354.68 1536.5 Q1349.78 1536.5 1346.82 1539.27 Q1343.89 1542.04 1343.44 1547.07 L1364.32 1547.04 Z" fill="#000000" fill-rule="evenodd" fill-opacity="1" /><path clip-path="url(#clip190)" d="M 0 0 M1381.99 1562.7 L1381.99 1581.6 L1376.1 1581.6 L1376.1 1532.4 L1381.99 1532.4 L1381.99 1537.81 Q1383.83 1534.62 1386.63 1533.1 Q1389.47 1531.54 1393.38 1531.54 Q1399.87 1531.54 1403.92 1536.69 Q1407.99 1541.85 1407.99 1550.25 Q1407.99 1558.65 1403.92 1563.81 Q1399.87 1568.97 1393.38 1568.97 Q1389.47 1568.97 1386.63 1567.44 Q1383.83 1565.88 1381.99 1562.7 M1401.91 1550.25 Q1401.91 1543.79 1399.24 1540.13 Q1396.6 1536.44 1391.95 1536.44 Q1387.3 1536.44 1384.63 1540.13 Q1381.99 1543.79 1381.99 1550.25 Q1381.99 1556.71 1384.63 1560.4 Q1387.3 1564.07 1391.95 1564.07 Q1396.6 1564.07 1399.24 1560.4 Q1401.91 1556.71 1401.91 1550.25 Z" fill="#000000" fill-rule="evenodd" fill-opacity="1" /><path clip-path="url(#clip190)" d="M 0 0 M1436.86 1533.45 L1436.86 1538.98 Q1434.38 1537.71 1431.7 1537.07 Q1429.03 1536.44 1426.16 1536.44 Q1421.8 1536.44 1419.61 1537.77 Q1417.44 1539.11 1417.44 1541.79 Q1417.44 1543.82 1419 1545 Q1420.56 1546.15 1425.27 1547.2 L1427.28 1547.64 Q1433.52 1548.98 1436.13 1551.43 Q1438.77 1553.85 1438.77 1558.21 Q1438.77 1563.17 1434.82 1566.07 Q1430.91 1568.97 1424.03 1568.97 Q1421.17 1568.97 1418.05 1568.39 Q1414.96 1567.85 1411.52 1566.74 L1411.52 1560.69 Q1414.77 1562.38 1417.92 1563.24 Q1421.07 1564.07 1424.16 1564.07 Q1428.3 1564.07 1430.52 1562.66 Q1432.75 1561.23 1432.75 1558.65 Q1432.75 1556.27 1431.13 1554.99 Q1429.54 1553.72 1424.1 1552.54 L1422.06 1552.07 Q1416.62 1550.92 1414.2 1548.56 Q1411.78 1546.18 1411.78 1542.04 Q1411.78 1537.01 1415.34 1534.27 Q1418.91 1531.54 1425.46 1531.54 Q1428.71 1531.54 1431.58 1532.01 Q1434.44 1532.49 1436.86 1533.45 Z" fill="#000000" fill-rule="evenodd" fill-opacity="1" /><path clip-path="url(#clip190)" d="M 0 0 M1443.99 1518.58 L1449.08 1518.58 Q1453.86 1526.09 1456.21 1533.29 Q1458.6 1540.48 1458.6 1547.58 Q1458.6 1554.71 1456.21 1561.93 Q1453.86 1569.16 1449.08 1576.64 L1443.99 1576.64 Q1448.22 1569.35 1450.29 1562.16 Q1452.39 1554.93 1452.39 1547.58 Q1452.39 1540.23 1450.29 1533.06 Q1448.22 1525.9 1443.99 1518.58 Z" fill="#000000" fill-rule="evenodd" fill-opacity="1" /><polyline clip-path="url(#clip193)" style="stroke:#000000; stroke-width:2; stroke-opacity:0.1; fill:none" points="
  214.835,1173.93 2352.76,1173.93 
  "/>
<polyline clip-path="url(#clip193)" style="stroke:#000000; stroke-width:2; stroke-opacity:0.1; fill:none" points="
  214.835,895.305 2352.76,895.305 
  "/>
<polyline clip-path="url(#clip193)" style="stroke:#000000; stroke-width:2; stroke-opacity:0.1; fill:none" points="
  214.835,616.678 2352.76,616.678 
  "/>
<polyline clip-path="url(#clip193)" style="stroke:#000000; stroke-width:2; stroke-opacity:0.1; fill:none" points="
  214.835,338.051 2352.76,338.051 
  "/>
<polyline clip-path="url(#clip190)" style="stroke:#000000; stroke-width:4; stroke-opacity:1; fill:none" points="
  214.835,1423.18 214.835,123.472 
  "/>
<polyline clip-path="url(#clip190)" style="stroke:#000000; stroke-width:4; stroke-opacity:1; fill:none" points="
  214.835,1173.93 240.49,1173.93 
  "/>
<polyline clip-path="url(#clip190)" style="stroke:#000000; stroke-width:4; stroke-opacity:1; fill:none" points="
  214.835,895.305 240.49,895.305 
  "/>
<polyline clip-path="url(#clip190)" style="stroke:#000000; stroke-width:4; stroke-opacity:1; fill:none" points="
  214.835,616.678 240.49,616.678 
  "/>
<polyline clip-path="url(#clip190)" style="stroke:#000000; stroke-width:4; stroke-opacity:1; fill:none" points="
  214.835,338.051 240.49,338.051 
  "/>
<path clip-path="url(#clip190)" d="M 0 0 M112.504 1193.72 L120.143 1193.72 L120.143 1167.36 L111.833 1169.03 L111.833 1164.77 L120.097 1163.1 L124.773 1163.1 L124.773 1193.72 L132.411 1193.72 L132.411 1197.66 L112.504 1197.66 L112.504 1193.72 Z" fill="#000000" fill-rule="evenodd" fill-opacity="1" /><path clip-path="url(#clip190)" d="M 0 0 M147.481 1166.18 Q143.87 1166.18 142.041 1169.74 Q140.235 1173.28 140.235 1180.41 Q140.235 1187.52 142.041 1191.09 Q143.87 1194.63 147.481 1194.63 Q151.115 1194.63 152.921 1191.09 Q154.749 1187.52 154.749 1180.41 Q154.749 1173.28 152.921 1169.74 Q151.115 1166.18 147.481 1166.18 M147.481 1162.47 Q153.291 1162.47 156.347 1167.08 Q159.425 1171.66 159.425 1180.41 Q159.425 1189.14 156.347 1193.75 Q153.291 1198.33 147.481 1198.33 Q141.671 1198.33 138.592 1193.75 Q135.536 1189.14 135.536 1180.41 Q135.536 1171.66 138.592 1167.08 Q141.671 1162.47 147.481 1162.47 Z" fill="#000000" fill-rule="evenodd" fill-opacity="1" /><path clip-path="url(#clip190)" d="M 0 0 M169.13 1144.67 Q166.196 1144.67 164.71 1147.57 Q163.243 1150.44 163.243 1156.24 Q163.243 1162.01 164.71 1164.91 Q166.196 1167.79 169.13 1167.79 Q172.083 1167.79 173.55 1164.91 Q175.036 1162.01 175.036 1156.24 Q175.036 1150.44 173.55 1147.57 Q172.083 1144.67 169.13 1144.67 M169.13 1141.66 Q173.851 1141.66 176.333 1145.4 Q178.835 1149.13 178.835 1156.24 Q178.835 1163.33 176.333 1167.07 Q173.851 1170.79 169.13 1170.79 Q164.409 1170.79 161.908 1167.07 Q159.425 1163.33 159.425 1156.24 Q159.425 1149.13 161.908 1145.4 Q164.409 1141.66 169.13 1141.66 Z" fill="#000000" fill-rule="evenodd" fill-opacity="1" /><path clip-path="url(#clip190)" d="M 0 0 M114.084 915.097 L121.723 915.097 L121.723 888.732 L113.413 890.398 L113.413 886.139 L121.677 884.472 L126.352 884.472 L126.352 915.097 L133.991 915.097 L133.991 919.032 L114.084 919.032 L114.084 915.097 Z" fill="#000000" fill-rule="evenodd" fill-opacity="1" /><path clip-path="url(#clip190)" d="M 0 0 M149.061 887.551 Q145.45 887.551 143.621 891.116 Q141.815 894.657 141.815 901.787 Q141.815 908.893 143.621 912.458 Q145.45 916 149.061 916 Q152.695 916 154.5 912.458 Q156.329 908.893 156.329 901.787 Q156.329 894.657 154.5 891.116 Q152.695 887.551 149.061 887.551 M149.061 883.847 Q154.871 883.847 157.926 888.454 Q161.005 893.037 161.005 901.787 Q161.005 910.514 157.926 915.12 Q154.871 919.704 149.061 919.704 Q143.251 919.704 140.172 915.12 Q137.116 910.514 137.116 901.787 Q137.116 893.037 140.172 888.454 Q143.251 883.847 149.061 883.847 Z" fill="#000000" fill-rule="evenodd" fill-opacity="1" /><path clip-path="url(#clip190)" d="M 0 0 M165.575 888.425 L178.835 888.425 L178.835 891.622 L161.005 891.622 L161.005 888.425 Q163.168 886.186 166.892 882.425 Q170.635 878.645 171.594 877.554 Q173.418 875.504 174.133 874.093 Q174.866 872.664 174.866 871.291 Q174.866 869.053 173.287 867.642 Q171.725 866.231 169.205 866.231 Q167.419 866.231 165.425 866.852 Q163.45 867.473 161.193 868.733 L161.193 864.896 Q163.488 863.974 165.481 863.504 Q167.475 863.034 169.13 863.034 Q173.493 863.034 176.089 865.216 Q178.684 867.398 178.684 871.046 Q178.684 872.777 178.026 874.338 Q177.387 875.88 175.675 877.986 Q175.205 878.532 172.685 881.146 Q170.164 883.741 165.575 888.425 Z" fill="#000000" fill-rule="evenodd" fill-opacity="1" /><path clip-path="url(#clip190)" d="M 0 0 M111.451 636.47 L119.09 636.47 L119.09 610.105 L110.78 611.771 L110.78 607.512 L119.043 605.845 L123.719 605.845 L123.719 636.47 L131.358 636.47 L131.358 640.405 L111.451 640.405 L111.451 636.47 Z" fill="#000000" fill-rule="evenodd" fill-opacity="1" /><path clip-path="url(#clip190)" d="M 0 0 M146.428 608.924 Q142.817 608.924 140.988 612.489 Q139.182 616.03 139.182 623.16 Q139.182 630.266 140.988 633.831 Q142.817 637.373 146.428 637.373 Q150.062 637.373 151.867 633.831 Q153.696 630.266 153.696 623.16 Q153.696 616.03 151.867 612.489 Q150.062 608.924 146.428 608.924 M146.428 605.22 Q152.238 605.22 155.293 609.827 Q158.372 614.41 158.372 623.16 Q158.372 631.887 155.293 636.493 Q152.238 641.077 146.428 641.077 Q140.617 641.077 137.539 636.493 Q134.483 631.887 134.483 623.16 Q134.483 614.41 137.539 609.827 Q140.617 605.22 146.428 605.22 Z" fill="#000000" fill-rule="evenodd" fill-opacity="1" /><path clip-path="url(#clip190)" d="M 0 0 M171.048 588.225 L161.456 603.215 L171.048 603.215 L171.048 588.225 M170.052 584.915 L174.829 584.915 L174.829 603.215 L178.835 603.215 L178.835 606.375 L174.829 606.375 L174.829 612.995 L171.048 612.995 L171.048 606.375 L158.372 606.375 L158.372 602.707 L170.052 584.915 Z" fill="#000000" fill-rule="evenodd" fill-opacity="1" /><path clip-path="url(#clip190)" d="M 0 0 M112.523 357.843 L120.162 357.843 L120.162 331.478 L111.852 333.144 L111.852 328.885 L120.116 327.218 L124.791 327.218 L124.791 357.843 L132.43 357.843 L132.43 361.778 L112.523 361.778 L112.523 357.843 Z" fill="#000000" fill-rule="evenodd" fill-opacity="1" /><path clip-path="url(#clip190)" d="M 0 0 M147.5 330.297 Q143.889 330.297 142.06 333.862 Q140.254 337.403 140.254 344.533 Q140.254 351.639 142.06 355.204 Q143.889 358.746 147.5 358.746 Q151.134 358.746 152.939 355.204 Q154.768 351.639 154.768 344.533 Q154.768 337.403 152.939 333.862 Q151.134 330.297 147.5 330.297 M147.5 326.593 Q153.31 326.593 156.365 331.2 Q159.444 335.783 159.444 344.533 Q159.444 353.26 156.365 357.866 Q153.31 362.45 147.5 362.45 Q141.689 362.45 138.611 357.866 Q135.555 353.26 135.555 344.533 Q135.555 335.783 138.611 331.2 Q141.689 326.593 147.5 326.593 Z" fill="#000000" fill-rule="evenodd" fill-opacity="1" /><path clip-path="url(#clip190)" d="M 0 0 M169.469 318.814 Q166.911 318.814 165.406 320.563 Q163.92 322.312 163.92 325.359 Q163.92 328.387 165.406 330.155 Q166.911 331.904 169.469 331.904 Q172.026 331.904 173.512 330.155 Q175.017 328.387 175.017 325.359 Q175.017 322.312 173.512 320.563 Q172.026 318.814 169.469 318.814 M177.01 306.909 L177.01 310.369 Q175.581 309.692 174.114 309.335 Q172.666 308.977 171.236 308.977 Q167.475 308.977 165.481 311.516 Q163.506 314.056 163.224 319.19 Q164.334 317.554 166.008 316.689 Q167.682 315.805 169.694 315.805 Q173.926 315.805 176.371 318.381 Q178.835 320.939 178.835 325.359 Q178.835 329.685 176.277 332.299 Q173.719 334.913 169.469 334.913 Q164.597 334.913 162.021 331.189 Q159.444 327.447 159.444 320.356 Q159.444 313.698 162.604 309.749 Q165.763 305.78 171.086 305.78 Q172.515 305.78 173.964 306.062 Q175.431 306.344 177.01 306.909 Z" fill="#000000" fill-rule="evenodd" fill-opacity="1" /><path clip-path="url(#clip190)" d="M 0 0 M38.6263 828.311 Q39.0772 828.311 40.14 828.6 L65.325 834.913 Q70.9288 836.298 74.8579 840.806 Q78.787 845.283 78.787 850.372 Q78.787 853.431 77.1445 855.396 Q75.5342 857.36 73.0544 857.36 Q70.8644 857.36 69.8016 856.201 Q68.771 855.041 68.771 853.657 Q68.771 853.206 68.8998 852.723 Q69.0286 852.239 69.5761 851.724 Q70.1236 851.209 71.0576 851.209 Q72.5713 851.209 73.7629 852.529 Q74.3104 853.173 74.4392 853.785 Q74.5681 854.365 74.5681 855.363 Q75.4698 854.977 76.0817 854.268 Q76.6936 853.56 76.9191 852.755 Q77.1767 851.95 77.2411 851.434 Q77.3378 850.887 77.3378 850.372 Q77.3378 846.249 73.1832 843.093 Q71.9272 842.159 70.6711 841.483 Q69.4473 840.774 67.9336 840.259 Q66.4522 839.744 65.647 839.518 Q64.8419 839.261 63.0061 838.81 Q66.0013 841.805 66.0013 845.476 Q66.0013 847.022 65.5826 848.407 Q65.1639 849.76 64.2944 850.951 Q63.3926 852.143 61.8145 852.851 Q60.2364 853.528 58.1431 853.528 Q55.9209 853.528 52.8935 852.658 Q49.8662 851.789 44.2945 849.695 Q41.1706 848.568 39.6569 848.568 Q38.9162 848.568 38.4653 848.729 Q37.9822 848.89 37.8212 849.212 Q37.6279 849.534 37.5957 849.727 Q37.5635 849.888 37.5635 850.21 Q37.5635 852.111 39.4959 853.882 Q41.4282 855.653 45.7438 856.877 Q46.549 857.135 46.7422 857.296 Q46.9354 857.457 46.9354 857.94 Q46.9032 858.745 46.2591 858.745 Q46.0015 858.745 45.0031 858.455 Q43.9725 858.165 42.4588 857.489 Q40.9129 856.78 39.5281 855.814 Q38.111 854.848 37.1126 853.334 Q36.1143 851.789 36.1143 850.017 Q36.1143 847.602 37.6923 846.12 Q39.2382 844.607 41.5248 844.607 Q42.4588 844.607 43.2962 844.864 Q44.1013 845.09 46.2591 845.927 Q54.9547 849.309 59.2059 849.309 Q60.2364 849.309 61.106 849.148 Q61.9434 848.954 62.7807 848.536 Q63.5859 848.117 64.0689 847.28 Q64.5198 846.41 64.5198 845.219 Q64.5198 843.705 63.8113 842.288 Q63.0706 840.839 62.0722 839.937 Q61.0738 839.003 60.2364 838.455 Q59.3669 837.876 58.916 837.747 L47.0642 834.784 L41.7825 833.463 Q38.9162 832.852 38.2076 832.562 Q37.5313 832.175 37.177 831.499 Q36.8228 830.823 36.8228 830.243 Q36.8228 829.438 37.3059 828.89 Q37.789 828.311 38.6263 828.311 Z" fill="#000000" fill-rule="evenodd" fill-opacity="1" /><path clip-path="url(#clip190)" d="M 0 0 M45.6342 821.549 Q44.8 821.549 44.552 821.481 Q44.3041 821.391 43.9208 821.03 L34.0465 812.17 Q28.5908 807.323 23.834 807.323 Q20.7455 807.323 18.5361 808.947 Q16.3268 810.547 16.3268 813.501 Q16.3268 815.53 17.5667 817.243 Q18.8067 818.956 21.016 819.745 Q20.9709 819.61 20.9709 819.137 Q20.9709 817.987 21.6923 817.356 Q22.4137 816.702 23.3831 816.702 Q24.623 816.702 25.2317 817.513 Q25.8179 818.302 25.8179 819.091 Q25.8179 819.407 25.7503 819.835 Q25.6826 820.241 25.0514 820.895 Q24.3976 821.549 23.2479 821.549 Q20.0241 821.549 17.454 819.114 Q14.884 816.657 14.884 812.914 Q14.884 808.676 17.4089 805.903 Q19.9113 803.108 23.834 803.108 Q25.2092 803.108 26.4717 803.536 Q27.7116 803.942 28.681 804.505 Q29.6504 805.047 31.2059 806.534 Q32.7615 808.022 33.8661 809.217 Q34.9708 810.412 37.3154 813.095 L42.0722 817.987 L42.0722 809.668 Q42.0722 805.61 41.7115 805.294 Q41.0577 804.844 37.6085 804.28 L37.6085 803.108 L45.6342 804.415 L45.6342 821.549 Z" fill="#000000" fill-rule="evenodd" fill-opacity="1" /><path clip-path="url(#clip190)" d="M 0 0 M80.816 796.232 Q80.4939 796.232 79.7854 795.975 L17.5637 772.69 Q17.4993 772.69 17.145 772.529 Q16.7907 772.368 16.5653 772.271 Q16.3076 772.174 16.1144 771.981 Q15.9212 771.756 15.9212 771.498 Q15.9212 770.854 16.7263 770.854 Q16.7907 770.854 17.5637 771.047 L79.8498 794.397 Q80.977 794.783 81.2991 795.041 Q81.6211 795.266 81.6211 795.653 Q81.6211 796.232 80.816 796.232 Z" fill="#000000" fill-rule="evenodd" fill-opacity="1" /><path clip-path="url(#clip190)" d="M 0 0 M40.7197 719.874 Q43.1995 719.874 48.6745 721.226 Q54.1495 722.579 57.8854 724.221 Q66.0013 727.732 66.0013 733.787 Q66.0013 734.527 65.9369 735.268 Q65.8725 735.977 65.5826 737.039 Q65.2928 738.102 64.8419 738.972 Q64.3588 739.841 63.457 740.711 Q62.5553 741.548 61.3636 742.031 Q66.0013 744.704 66.0013 748.891 Q66.0013 752.949 63.9401 755.622 Q61.8789 758.263 57.66 758.263 Q55.7598 758.263 52.9579 757.49 Q50.156 756.717 44.359 754.559 Q41.3638 753.368 39.7213 753.368 Q38.9806 753.368 38.4975 753.529 Q38.0144 753.69 37.8534 754.012 Q37.6601 754.302 37.6279 754.495 Q37.5635 754.688 37.5635 755.01 Q37.5635 756.943 39.5281 758.682 Q41.4604 760.421 45.7438 761.677 Q46.549 761.934 46.7422 762.095 Q46.9354 762.256 46.9354 762.74 Q46.9032 763.545 46.2591 763.545 Q46.0015 763.545 45.0031 763.255 Q43.9725 762.965 42.4588 762.289 Q40.9129 761.58 39.5281 760.614 Q38.111 759.648 37.1126 758.134 Q36.1143 756.588 36.1143 754.817 Q36.1143 752.434 37.6923 750.92 Q39.2704 749.406 41.5248 749.406 Q42.169 749.406 42.8775 749.567 Q43.5538 749.728 44.0047 749.889 Q44.4234 750.018 45.7438 750.534 Q51.3154 752.659 53.9885 753.335 Q56.6616 753.98 58.5295 753.98 Q59.1414 753.98 59.6245 753.947 Q60.1076 753.915 61.106 753.658 Q62.1044 753.368 62.7807 752.852 Q63.4248 752.337 63.9723 751.274 Q64.5198 750.179 64.5198 748.698 Q64.5198 744.994 58.9804 742.611 Q58.6584 742.675 57.821 742.675 Q55.9531 742.675 53.441 742.096 Q52.8613 741.935 49.1576 741.001 Q45.4217 740.067 42.169 739.262 Q38.884 738.424 38.6907 738.328 Q37.789 738.005 37.3059 737.297 Q36.8228 736.588 36.8228 735.88 Q36.8228 735.075 37.3059 734.527 Q37.789 733.98 38.6263 733.98 Q38.7873 733.98 39.5281 734.173 Q40.2366 734.334 41.2994 734.592 Q42.3622 734.849 42.9097 734.978 L53.9885 737.748 Q56.565 738.456 58.7872 738.456 Q61.5891 738.456 63.0706 737.2 Q64.5198 735.944 64.5198 733.593 Q64.5198 729.181 58.7228 726.347 Q56.2107 725.059 52.2816 723.899 Q48.3525 722.708 46.6456 722.708 Q43.425 722.708 41.0418 725.091 Q40.5909 725.606 40.2366 725.832 Q39.8501 726.057 39.2704 726.057 Q38.1754 726.057 37.1448 725.027 Q36.1143 723.996 36.1143 722.772 Q36.1143 721.677 37.2093 720.775 Q38.272 719.874 40.7197 719.874 Z" fill="#000000" fill-rule="evenodd" fill-opacity="1" /><path clip-path="url(#clip190)" d="M 0 0 M45.6342 713.223 Q44.8 713.223 44.552 713.156 Q44.3041 713.066 43.9208 712.705 L34.0465 703.845 Q28.5908 698.998 23.834 698.998 Q20.7455 698.998 18.5361 700.621 Q16.3268 702.222 16.3268 705.175 Q16.3268 707.204 17.5667 708.918 Q18.8067 710.631 21.016 711.42 Q20.9709 711.285 20.9709 710.811 Q20.9709 709.662 21.6923 709.03 Q22.4137 708.377 23.3831 708.377 Q24.623 708.377 25.2317 709.188 Q25.8179 709.977 25.8179 710.766 Q25.8179 711.082 25.7503 711.51 Q25.6826 711.916 25.0514 712.57 Q24.3976 713.223 23.2479 713.223 Q20.0241 713.223 17.454 710.789 Q14.884 708.331 14.884 704.589 Q14.884 700.351 17.4089 697.578 Q19.9113 694.782 23.834 694.782 Q25.2092 694.782 26.4717 695.211 Q27.7116 695.617 28.681 696.18 Q29.6504 696.721 31.2059 698.209 Q32.7615 699.697 33.8661 700.892 Q34.9708 702.087 37.3154 704.769 L42.0722 709.662 L42.0722 701.343 Q42.0722 697.285 41.7115 696.969 Q41.0577 696.518 37.6085 695.955 L37.6085 694.782 L45.6342 696.09 L45.6342 713.223 Z" fill="#000000" fill-rule="evenodd" fill-opacity="1" /><path clip-path="url(#clip190)" d="M 0 0 M1049.61 27.2059 L1057.07 27.2059 L1066.38 62.6108 L1075.66 27.2059 L1084.45 27.2059 L1093.77 62.6108 L1103.04 27.2059 L1110.5 27.2059 L1098.63 72.576 L1089.84 72.576 L1080.08 35.3887 L1070.27 72.576 L1061.48 72.576 L1049.61 27.2059 Z" fill="#000000" fill-rule="evenodd" fill-opacity="1" /><path clip-path="url(#clip190)" d="M 0 0 M1147.24 28.5427 L1147.24 35.5912 Q1144.08 33.9709 1140.68 33.1607 Q1137.27 32.3505 1133.63 32.3505 Q1128.08 32.3505 1125.28 34.0519 Q1122.53 35.7533 1122.53 39.156 Q1122.53 41.7486 1124.51 43.2475 Q1126.5 44.7058 1132.49 46.0426 L1135.05 46.6097 Q1142.99 48.3111 1146.31 51.4303 Q1149.67 54.509 1149.67 60.0587 Q1149.67 66.3781 1144.65 70.0644 Q1139.66 73.7508 1130.91 73.7508 Q1127.27 73.7508 1123.3 73.0216 Q1119.37 72.3329 1114.99 70.9151 L1114.99 63.2184 Q1119.13 65.3654 1123.14 66.4591 Q1127.15 67.5124 1131.08 67.5124 Q1136.34 67.5124 1139.18 65.73 Q1142.01 63.9071 1142.01 60.6258 Q1142.01 57.5877 1139.95 55.9673 Q1137.92 54.3469 1131 52.8481 L1128.4 52.2405 Q1121.48 50.7821 1118.4 47.7845 Q1115.32 44.7463 1115.32 39.4801 Q1115.32 33.0797 1119.86 29.5959 Q1124.39 26.1121 1132.74 26.1121 Q1136.87 26.1121 1140.51 26.7198 Q1144.16 27.3274 1147.24 28.5427 Z" fill="#000000" fill-rule="evenodd" fill-opacity="1" /><path clip-path="url(#clip190)" d="M 0 0 M1190.14 28.9478 L1190.14 35.9153 Q1186.98 34.1734 1183.78 33.3227 Q1180.62 32.4315 1177.38 32.4315 Q1170.13 32.4315 1166.12 37.0496 Q1162.11 41.6271 1162.11 49.9314 Q1162.11 58.2358 1166.12 62.8538 Q1170.13 67.4314 1177.38 67.4314 Q1180.62 67.4314 1183.78 66.5807 Q1186.98 65.6895 1190.14 63.9476 L1190.14 70.8341 Q1187.02 72.2924 1183.66 73.0216 Q1180.34 73.7508 1176.57 73.7508 Q1166.32 73.7508 1160.28 67.3098 Q1154.25 60.8689 1154.25 49.9314 Q1154.25 38.832 1160.32 32.472 Q1166.44 26.1121 1177.05 26.1121 Q1180.5 26.1121 1183.78 26.8413 Q1187.06 27.5299 1190.14 28.9478 Z" fill="#000000" fill-rule="evenodd" fill-opacity="1" /><path clip-path="url(#clip190)" d="M 0 0 M1218.58 49.7694 Q1209.54 49.7694 1206.06 51.8354 Q1202.57 53.9013 1202.57 58.8839 Q1202.57 62.8538 1205.17 65.2034 Q1207.8 67.5124 1212.3 67.5124 Q1218.49 67.5124 1222.22 63.1374 Q1225.99 58.7219 1225.99 51.4303 L1225.99 49.7694 L1218.58 49.7694 M1233.44 46.6907 L1233.44 72.576 L1225.99 72.576 L1225.99 65.6895 Q1223.44 69.8214 1219.63 71.8063 Q1215.82 73.7508 1210.31 73.7508 Q1203.34 73.7508 1199.21 69.8619 Q1195.12 65.9325 1195.12 59.3701 Q1195.12 51.7138 1200.23 47.825 Q1205.37 43.9361 1215.54 43.9361 L1225.99 43.9361 L1225.99 43.2069 Q1225.99 38.0623 1222.59 35.2672 Q1219.22 32.4315 1213.11 32.4315 Q1209.22 32.4315 1205.53 33.3632 Q1201.85 34.295 1198.44 36.1584 L1198.44 29.2718 Q1202.53 27.692 1206.38 26.9223 Q1210.23 26.1121 1213.88 26.1121 Q1223.72 26.1121 1228.58 31.2163 Q1233.44 36.3204 1233.44 46.6907 Z" fill="#000000" fill-rule="evenodd" fill-opacity="1" /><path clip-path="url(#clip190)" d="M 0 0 M1241.26 9.54393 L1248.71 9.54393 L1248.71 72.576 L1241.26 72.576 L1241.26 9.54393 Z" fill="#000000" fill-rule="evenodd" fill-opacity="1" /><path clip-path="url(#clip190)" d="M 0 0 M1295.34 48.0275 L1295.34 51.6733 L1261.07 51.6733 Q1261.56 59.3701 1265.69 63.421 Q1269.86 67.4314 1277.27 67.4314 Q1281.57 67.4314 1285.58 66.3781 Q1289.63 65.3249 1293.6 63.2184 L1293.6 70.267 Q1289.59 71.9684 1285.38 72.8596 Q1281.16 73.7508 1276.83 73.7508 Q1265.97 73.7508 1259.61 67.4314 Q1253.29 61.1119 1253.29 50.3365 Q1253.29 39.1965 1259.29 32.6746 Q1265.32 26.1121 1275.53 26.1121 Q1284.69 26.1121 1289.99 32.0264 Q1295.34 37.9003 1295.34 48.0275 M1287.89 45.84 Q1287.81 39.7232 1284.44 36.0774 Q1281.12 32.4315 1275.61 32.4315 Q1269.37 32.4315 1265.61 35.9558 Q1261.88 39.4801 1261.31 45.8805 L1287.89 45.84 Z" fill="#000000" fill-rule="evenodd" fill-opacity="1" /><path clip-path="url(#clip190)" d="M 0 0 M1330.5 34.9026 L1382.43 34.9026 L1382.43 41.7081 L1330.5 41.7081 L1330.5 34.9026 M1330.5 51.4303 L1382.43 51.4303 L1382.43 58.3168 L1330.5 58.3168 L1330.5 51.4303 Z" fill="#000000" fill-rule="evenodd" fill-opacity="1" /><path clip-path="url(#clip190)" d="M 0 0 M1435.18 17.4837 Q1428.86 17.4837 1425.66 23.7221 Q1422.5 29.92 1422.5 42.3968 Q1422.5 54.833 1425.66 61.0714 Q1428.86 67.2693 1435.18 67.2693 Q1441.54 67.2693 1444.7 61.0714 Q1447.9 54.833 1447.9 42.3968 Q1447.9 29.92 1444.7 23.7221 Q1441.54 17.4837 1435.18 17.4837 M1435.18 11.0023 Q1445.35 11.0023 1450.69 19.0636 Q1456.08 27.0843 1456.08 42.3968 Q1456.08 57.6687 1450.69 65.73 Q1445.35 73.7508 1435.18 73.7508 Q1425.01 73.7508 1419.62 65.73 Q1414.27 57.6687 1414.27 42.3968 Q1414.27 27.0843 1419.62 19.0636 Q1425.01 11.0023 1435.18 11.0023 Z" fill="#000000" fill-rule="evenodd" fill-opacity="1" /><path clip-path="url(#clip190)" d="M 0 0 M1464.95 62.2867 L1473.5 62.2867 L1473.5 72.576 L1464.95 72.576 L1464.95 62.2867 Z" fill="#000000" fill-rule="evenodd" fill-opacity="1" /><path clip-path="url(#clip190)" d="M 0 0 M1489.42 65.6895 L1517.98 65.6895 L1517.98 72.576 L1479.58 72.576 L1479.58 65.6895 Q1484.23 60.8689 1492.25 52.7671 Q1500.32 44.6248 1502.38 42.2752 Q1506.31 37.8598 1507.85 34.8216 Q1509.43 31.7429 1509.43 28.7857 Q1509.43 23.9651 1506.03 20.927 Q1502.67 17.8888 1497.24 17.8888 Q1493.39 17.8888 1489.1 19.2256 Q1484.84 20.5624 1479.98 23.2765 L1479.98 15.0127 Q1484.92 13.0277 1489.22 12.015 Q1493.51 11.0023 1497.08 11.0023 Q1506.47 11.0023 1512.06 15.7013 Q1517.65 20.4004 1517.65 28.2591 Q1517.65 31.9859 1516.24 35.3482 Q1514.86 38.6699 1511.17 43.2069 Q1510.16 44.3817 1504.73 50.0125 Q1499.3 55.6027 1489.42 65.6895 Z" fill="#000000" fill-rule="evenodd" fill-opacity="1" /><polyline clip-path="url(#clip193)" style="stroke:#009af9; stroke-width:4; stroke-opacity:1; fill:none" points="
  275.342,1386.4 295.511,1170.67 315.68,1173.71 335.849,1209.85 356.018,1212.69 376.187,1182.02 396.356,1165.72 416.525,1107.6 436.695,1091.06 456.864,1061.69 
  477.033,1027.44 497.202,987.762 517.371,958.906 537.54,924.37 557.709,890.693 577.878,849.828 598.047,786.915 618.216,670.98 638.385,419.83 658.554,640.11 
  678.723,688.112 698.892,707.365 719.061,702.795 739.231,692.439 759.4,673.027 779.569,642.827 799.738,600.395 819.907,526.907 840.076,454.151 860.245,160.256 
  880.414,557.961 900.583,642.587 920.752,681.199 940.921,700.342 961.09,726.08 981.259,759.898 1001.43,781.505 1021.6,794.802 1041.77,802.624 1061.94,801.072 
  1082.1,789.345 1102.27,776.662 1122.44,757.419 1142.61,718.552 1162.78,618.949 1182.95,561.601 1203.12,735.307 1223.29,812.398 1243.46,866.72 1263.63,911.15 
  1283.8,945.934 1303.96,969.295 1324.13,983.098 1344.3,986.603 1364.47,984.512 1384.64,972.252 1404.81,959.35 1424.98,932.761 1445.15,904.308 1465.32,873.433 
  1485.49,827.891 1505.66,733.913 1525.82,585.626 1545.99,797.401 1566.16,867.008 1586.33,905.128 1606.5,924.198 1626.67,938.802 1646.84,947.802 1667.01,951.23 
  1687.18,947.987 1707.35,943.041 1727.51,928.298 1747.68,901.523 1767.85,854.805 1788.02,756.391 1808.19,678.731 1828.36,850.426 1848.53,919.382 1868.7,960.193 
  1888.87,983.437 1909.04,995.923 1929.21,1002.59 1949.37,1007.73 1969.54,1007.36 1989.71,998.415 2009.88,986.099 2030.05,967.09 2050.22,946.013 2070.39,913.539 
  2090.56,866.842 2110.73,782.129 2130.9,575.734 2151.07,706.277 2171.23,796.031 2191.4,839.634 2211.57,864.057 2231.74,875.923 2251.91,878.89 2272.08,876.952 
  2292.25,870.639 
  "/>
<path clip-path="url(#clip190)" d="
M1992.93 287.756 L2281.49 287.756 L2281.49 166.796 L1992.93 166.796  Z
  " fill="#ffffff" fill-rule="evenodd" fill-opacity="1"/>
<polyline clip-path="url(#clip190)" style="stroke:#000000; stroke-width:4; stroke-opacity:1; fill:none" points="
  1992.93,287.756 2281.49,287.756 2281.49,166.796 1992.93,166.796 1992.93,287.756 
  "/>
<polyline clip-path="url(#clip190)" style="stroke:#009af9; stroke-width:4; stroke-opacity:1; fill:none" points="
  2016.68,227.276 2159.21,227.276 
  "/>
<path clip-path="url(#clip190)" d="M 0 0 M2196.81 246.963 Q2195 251.593 2193.29 253.005 Q2191.58 254.417 2188.7 254.417 L2185.3 254.417 L2185.3 250.852 L2187.8 250.852 Q2189.56 250.852 2190.53 250.019 Q2191.51 249.185 2192.69 246.083 L2193.45 244.139 L2182.96 218.63 L2187.48 218.63 L2195.58 238.908 L2203.68 218.63 L2208.2 218.63 L2196.81 246.963 Z" fill="#000000" fill-rule="evenodd" fill-opacity="1" /><path clip-path="url(#clip190)" d="M 0 0 M2214.08 240.621 L2221.71 240.621 L2221.71 214.255 L2213.4 215.922 L2213.4 211.662 L2221.67 209.996 L2226.34 209.996 L2226.34 240.621 L2233.98 240.621 L2233.98 244.556 L2214.08 244.556 L2214.08 240.621 Z" fill="#000000" fill-rule="evenodd" fill-opacity="1" /></svg>
