<?xml version="1.0" encoding="utf-8"?>
<svg xmlns="http://www.w3.org/2000/svg" xmlns:xlink="http://www.w3.org/1999/xlink" width="600" height="400" viewBox="0 0 2400 1600">
<defs>
  <clipPath id="clip520">
    <rect x="0" y="0" width="2400" height="1600"/>
  </clipPath>
</defs>
<path clip-path="url(#clip520)" d="
M0 1600 L2400 1600 L2400 0 L0 0  Z
  " fill="#ffffff" fill-rule="evenodd" fill-opacity="1"/>
<defs>
  <clipPath id="clip521">
    <rect x="480" y="0" width="1681" height="1600"/>
  </clipPath>
</defs>
<defs>
  <clipPath id="clip522">
    <rect x="195" y="123" width="2159" height="1317"/>
  </clipPath>
</defs>
<path clip-path="url(#clip520)" d="
M268.362 1423.18 L2352.76 1423.18 L2352.76 123.472 L268.362 123.472  Z
  " fill="#ffffff" fill-rule="evenodd" fill-opacity="1"/>
<defs>
  <clipPath id="clip523">
    <rect x="268" y="123" width="2085" height="1301"/>
  </clipPath>
</defs>
<polyline clip-path="url(#clip523)" style="stroke:#000000; stroke-width:2; stroke-opacity:0.1; fill:none" points="
  307.69,1423.18 307.69,123.472 
  "/>
<polyline clip-path="url(#clip523)" style="stroke:#000000; stroke-width:2; stroke-opacity:0.1; fill:none" points="
  799.292,1423.18 799.292,123.472 
  "/>
<polyline clip-path="url(#clip523)" style="stroke:#000000; stroke-width:2; stroke-opacity:0.1; fill:none" points="
  1290.89,1423.18 1290.89,123.472 
  "/>
<polyline clip-path="url(#clip523)" style="stroke:#000000; stroke-width:2; stroke-opacity:0.1; fill:none" points="
  1782.5,1423.18 1782.5,123.472 
  "/>
<polyline clip-path="url(#clip523)" style="stroke:#000000; stroke-width:2; stroke-opacity:0.1; fill:none" points="
  2274.1,1423.18 2274.1,123.472 
  "/>
<polyline clip-path="url(#clip520)" style="stroke:#000000; stroke-width:4; stroke-opacity:1; fill:none" points="
  268.362,1423.18 2352.76,1423.18 
  "/>
<polyline clip-path="url(#clip520)" style="stroke:#000000; stroke-width:4; stroke-opacity:1; fill:none" points="
  307.69,1423.18 307.69,1407.58 
  "/>
<polyline clip-path="url(#clip520)" style="stroke:#000000; stroke-width:4; stroke-opacity:1; fill:none" points="
  799.292,1423.18 799.292,1407.58 
  "/>
<polyline clip-path="url(#clip520)" style="stroke:#000000; stroke-width:4; stroke-opacity:1; fill:none" points="
  1290.89,1423.18 1290.89,1407.58 
  "/>
<polyline clip-path="url(#clip520)" style="stroke:#000000; stroke-width:4; stroke-opacity:1; fill:none" points="
  1782.5,1423.18 1782.5,1407.58 
  "/>
<polyline clip-path="url(#clip520)" style="stroke:#000000; stroke-width:4; stroke-opacity:1; fill:none" points="
  2274.1,1423.18 2274.1,1407.58 
  "/>
<path clip-path="url(#clip520)" d="M 0 0 M307.69 1452.37 Q304.079 1452.37 302.25 1455.94 Q300.445 1459.48 300.445 1466.61 Q300.445 1473.71 302.25 1477.28 Q304.079 1480.82 307.69 1480.82 Q311.324 1480.82 313.13 1477.28 Q314.958 1473.71 314.958 1466.61 Q314.958 1459.48 313.13 1455.94 Q311.324 1452.37 307.69 1452.37 M307.69 1448.67 Q313.5 1448.67 316.556 1453.27 Q319.634 1457.86 319.634 1466.61 Q319.634 1475.33 316.556 1479.94 Q313.5 1484.52 307.69 1484.52 Q301.88 1484.52 298.801 1479.94 Q295.746 1475.33 295.746 1466.61 Q295.746 1457.86 298.801 1453.27 Q301.88 1448.67 307.69 1448.67 Z" fill="#000000" fill-rule="evenodd" fill-opacity="1" /><path clip-path="url(#clip520)" d="M 0 0 M780.936 1479.92 L797.255 1479.92 L797.255 1483.85 L775.311 1483.85 L775.311 1479.92 Q777.973 1477.16 782.556 1472.53 Q787.163 1467.88 788.343 1466.54 Q790.589 1464.01 791.468 1462.28 Q792.371 1460.52 792.371 1458.83 Q792.371 1456.07 790.427 1454.34 Q788.505 1452.6 785.404 1452.6 Q783.204 1452.6 780.751 1453.37 Q778.32 1454.13 775.542 1455.68 L775.542 1450.96 Q778.367 1449.82 780.82 1449.25 Q783.274 1448.67 785.311 1448.67 Q790.681 1448.67 793.876 1451.35 Q797.07 1454.04 797.07 1458.53 Q797.07 1460.66 796.26 1462.58 Q795.473 1464.48 793.366 1467.07 Q792.788 1467.74 789.686 1470.96 Q786.584 1474.15 780.936 1479.92 Z" fill="#000000" fill-rule="evenodd" fill-opacity="1" /><path clip-path="url(#clip520)" d="M 0 0 M802.371 1449.29 L820.727 1449.29 L820.727 1453.23 L806.653 1453.23 L806.653 1461.7 Q807.672 1461.35 808.69 1461.19 Q809.709 1461 810.727 1461 Q816.514 1461 819.894 1464.18 Q823.274 1467.35 823.274 1472.76 Q823.274 1478.34 819.801 1481.44 Q816.329 1484.52 810.01 1484.52 Q807.834 1484.52 805.565 1484.15 Q803.32 1483.78 800.913 1483.04 L800.913 1478.34 Q802.996 1479.48 805.218 1480.03 Q807.44 1480.59 809.917 1480.59 Q813.922 1480.59 816.26 1478.48 Q818.598 1476.38 818.598 1472.76 Q818.598 1469.15 816.26 1467.05 Q813.922 1464.94 809.917 1464.94 Q808.042 1464.94 806.167 1465.36 Q804.315 1465.77 802.371 1466.65 L802.371 1449.29 Z" fill="#000000" fill-rule="evenodd" fill-opacity="1" /><path clip-path="url(#clip520)" d="M 0 0 M1267.67 1449.29 L1286.02 1449.29 L1286.02 1453.23 L1271.95 1453.23 L1271.95 1461.7 Q1272.97 1461.35 1273.99 1461.19 Q1275 1461 1276.02 1461 Q1281.81 1461 1285.19 1464.18 Q1288.57 1467.35 1288.57 1472.76 Q1288.57 1478.34 1285.1 1481.44 Q1281.62 1484.52 1275.3 1484.52 Q1273.13 1484.52 1270.86 1484.15 Q1268.61 1483.78 1266.21 1483.04 L1266.21 1478.34 Q1268.29 1479.48 1270.51 1480.03 Q1272.74 1480.59 1275.21 1480.59 Q1279.22 1480.59 1281.55 1478.48 Q1283.89 1476.38 1283.89 1472.76 Q1283.89 1469.15 1281.55 1467.05 Q1279.22 1464.94 1275.21 1464.94 Q1273.34 1464.94 1271.46 1465.36 Q1269.61 1465.77 1267.67 1466.65 L1267.67 1449.29 Z" fill="#000000" fill-rule="evenodd" fill-opacity="1" /><path clip-path="url(#clip520)" d="M 0 0 M1303.64 1452.37 Q1300.03 1452.37 1298.2 1455.94 Q1296.39 1459.48 1296.39 1466.61 Q1296.39 1473.71 1298.2 1477.28 Q1300.03 1480.82 1303.64 1480.82 Q1307.27 1480.82 1309.08 1477.28 Q1310.91 1473.71 1310.91 1466.61 Q1310.91 1459.48 1309.08 1455.94 Q1307.27 1452.37 1303.64 1452.37 M1303.64 1448.67 Q1309.45 1448.67 1312.5 1453.27 Q1315.58 1457.86 1315.58 1466.61 Q1315.58 1475.33 1312.5 1479.94 Q1309.45 1484.52 1303.64 1484.52 Q1297.83 1484.52 1294.75 1479.94 Q1291.69 1475.33 1291.69 1466.61 Q1291.69 1457.86 1294.75 1453.27 Q1297.83 1448.67 1303.64 1448.67 Z" fill="#000000" fill-rule="evenodd" fill-opacity="1" /><path clip-path="url(#clip520)" d="M 0 0 M1758.38 1449.29 L1780.6 1449.29 L1780.6 1451.28 L1768.05 1483.85 L1763.17 1483.85 L1774.97 1453.23 L1758.38 1453.23 L1758.38 1449.29 Z" fill="#000000" fill-rule="evenodd" fill-opacity="1" /><path clip-path="url(#clip520)" d="M 0 0 M1785.71 1449.29 L1804.07 1449.29 L1804.07 1453.23 L1790 1453.23 L1790 1461.7 Q1791.02 1461.35 1792.03 1461.19 Q1793.05 1461 1794.07 1461 Q1799.86 1461 1803.24 1464.18 Q1806.62 1467.35 1806.62 1472.76 Q1806.62 1478.34 1803.15 1481.44 Q1799.67 1484.52 1793.35 1484.52 Q1791.18 1484.52 1788.91 1484.15 Q1786.66 1483.78 1784.26 1483.04 L1784.26 1478.34 Q1786.34 1479.48 1788.56 1480.03 Q1790.78 1480.59 1793.26 1480.59 Q1797.27 1480.59 1799.6 1478.48 Q1801.94 1476.38 1801.94 1472.76 Q1801.94 1469.15 1799.6 1467.05 Q1797.27 1464.94 1793.26 1464.94 Q1791.39 1464.94 1789.51 1465.36 Q1787.66 1465.77 1785.71 1466.65 L1785.71 1449.29 Z" fill="#000000" fill-rule="evenodd" fill-opacity="1" /><path clip-path="url(#clip520)" d="M 0 0 M2237.47 1479.92 L2245.11 1479.92 L2245.11 1453.55 L2236.8 1455.22 L2236.8 1450.96 L2245.06 1449.29 L2249.74 1449.29 L2249.74 1479.92 L2257.38 1479.92 L2257.38 1483.85 L2237.47 1483.85 L2237.47 1479.92 Z" fill="#000000" fill-rule="evenodd" fill-opacity="1" /><path clip-path="url(#clip520)" d="M 0 0 M2272.44 1452.37 Q2268.83 1452.37 2267 1455.94 Q2265.2 1459.48 2265.2 1466.61 Q2265.2 1473.71 2267 1477.28 Q2268.83 1480.82 2272.44 1480.82 Q2276.08 1480.82 2277.88 1477.28 Q2279.71 1473.71 2279.71 1466.61 Q2279.71 1459.48 2277.88 1455.94 Q2276.08 1452.37 2272.44 1452.37 M2272.44 1448.67 Q2278.25 1448.67 2281.31 1453.27 Q2284.39 1457.86 2284.39 1466.61 Q2284.39 1475.33 2281.31 1479.94 Q2278.25 1484.52 2272.44 1484.52 Q2266.63 1484.52 2263.56 1479.94 Q2260.5 1475.33 2260.5 1466.61 Q2260.5 1457.86 2263.56 1453.27 Q2266.63 1448.67 2272.44 1448.67 Z" fill="#000000" fill-rule="evenodd" fill-opacity="1" /><path clip-path="url(#clip520)" d="M 0 0 M2299.46 1452.37 Q2295.85 1452.37 2294.02 1455.94 Q2292.21 1459.48 2292.21 1466.61 Q2292.21 1473.71 2294.02 1477.28 Q2295.85 1480.82 2299.46 1480.82 Q2303.09 1480.82 2304.9 1477.28 Q2306.73 1473.71 2306.73 1466.61 Q2306.73 1459.48 2304.9 1455.94 Q2303.09 1452.37 2299.46 1452.37 M2299.46 1448.67 Q2305.27 1448.67 2308.32 1453.27 Q2311.4 1457.86 2311.4 1466.61 Q2311.4 1475.33 2308.32 1479.94 Q2305.27 1484.52 2299.46 1484.52 Q2293.65 1484.52 2290.57 1479.94 Q2287.51 1475.33 2287.51 1466.61 Q2287.51 1457.86 2290.57 1453.27 Q2293.65 1448.67 2299.46 1448.67 Z" fill="#000000" fill-rule="evenodd" fill-opacity="1" /><path clip-path="url(#clip520)" d="M 0 0 M1145.94 1522.27 L1145.94 1532.4 L1158 1532.4 L1158 1536.95 L1145.94 1536.95 L1145.94 1556.3 Q1145.94 1560.66 1147.12 1561.9 Q1148.33 1563.14 1151.99 1563.14 L1158 1563.14 L1158 1568.04 L1151.99 1568.04 Q1145.21 1568.04 1142.63 1565.53 Q1140.05 1562.98 1140.05 1556.3 L1140.05 1536.95 L1135.76 1536.95 L1135.76 1532.4 L1140.05 1532.4 L1140.05 1522.27 L1145.94 1522.27 Z" fill="#000000" fill-rule="evenodd" fill-opacity="1" /><path clip-path="url(#clip520)" d="M 0 0 M1164.15 1532.4 L1170 1532.4 L1170 1568.04 L1164.15 1568.04 L1164.15 1532.4 M1164.15 1518.52 L1170 1518.52 L1170 1525.93 L1164.15 1525.93 L1164.15 1518.52 Z" fill="#000000" fill-rule="evenodd" fill-opacity="1" /><path clip-path="url(#clip520)" d="M 0 0 M1203.9 1539.24 Q1206.1 1535.29 1209.15 1533.41 Q1212.21 1531.54 1216.35 1531.54 Q1221.92 1531.54 1224.94 1535.45 Q1227.96 1539.33 1227.96 1546.53 L1227.96 1568.04 L1222.08 1568.04 L1222.08 1546.72 Q1222.08 1541.59 1220.26 1539.11 Q1218.45 1536.63 1214.72 1536.63 Q1210.17 1536.63 1207.53 1539.65 Q1204.89 1542.68 1204.89 1547.9 L1204.89 1568.04 L1199 1568.04 L1199 1546.72 Q1199 1541.56 1197.19 1539.11 Q1195.37 1536.63 1191.58 1536.63 Q1187.1 1536.63 1184.45 1539.68 Q1181.81 1542.71 1181.81 1547.9 L1181.81 1568.04 L1175.92 1568.04 L1175.92 1532.4 L1181.81 1532.4 L1181.81 1537.93 Q1183.82 1534.66 1186.62 1533.1 Q1189.42 1531.54 1193.27 1531.54 Q1197.15 1531.54 1199.86 1533.51 Q1202.6 1535.48 1203.9 1539.24 Z" fill="#000000" fill-rule="evenodd" fill-opacity="1" /><path clip-path="url(#clip520)" d="M 0 0 M1264.6 1548.76 L1264.6 1551.62 L1237.67 1551.62 Q1238.05 1557.67 1241.3 1560.85 Q1244.58 1564 1250.4 1564 Q1253.78 1564 1256.93 1563.17 Q1260.11 1562.35 1263.23 1560.69 L1263.23 1566.23 Q1260.08 1567.57 1256.77 1568.27 Q1253.46 1568.97 1250.05 1568.97 Q1241.52 1568.97 1236.53 1564 Q1231.56 1559.04 1231.56 1550.57 Q1231.56 1541.82 1236.27 1536.69 Q1241.01 1531.54 1249.03 1531.54 Q1256.23 1531.54 1260.4 1536.18 Q1264.6 1540.8 1264.6 1548.76 M1258.74 1547.04 Q1258.68 1542.23 1256.04 1539.37 Q1253.43 1536.5 1249.1 1536.5 Q1244.2 1536.5 1241.24 1539.27 Q1238.31 1542.04 1237.86 1547.07 L1258.74 1547.04 Z" fill="#000000" fill-rule="evenodd" fill-opacity="1" /><path clip-path="url(#clip520)" d="M 0 0 M1305.53 1518.58 Q1301.26 1525.9 1299.2 1533.06 Q1297.13 1540.23 1297.13 1547.58 Q1297.13 1554.93 1299.2 1562.16 Q1301.3 1569.35 1305.53 1576.64 L1300.44 1576.64 Q1295.66 1569.16 1293.28 1561.93 Q1290.92 1554.71 1290.92 1547.58 Q1290.92 1540.48 1293.28 1533.29 Q1295.63 1526.09 1300.44 1518.58 L1305.53 1518.58 Z" fill="#000000" fill-rule="evenodd" fill-opacity="1" /><path clip-path="url(#clip520)" d="M 0 0 M1334.4 1533.45 L1334.4 1538.98 Q1331.92 1537.71 1329.24 1537.07 Q1326.57 1536.44 1323.7 1536.44 Q1319.34 1536.44 1317.15 1537.77 Q1314.98 1539.11 1314.98 1541.79 Q1314.98 1543.82 1316.54 1545 Q1318.1 1546.15 1322.81 1547.2 L1324.82 1547.64 Q1331.06 1548.98 1333.67 1551.43 Q1336.31 1553.85 1336.31 1558.21 Q1336.31 1563.17 1332.36 1566.07 Q1328.45 1568.97 1321.57 1568.97 Q1318.71 1568.97 1315.59 1568.39 Q1312.5 1567.85 1309.06 1566.74 L1309.06 1560.69 Q1312.31 1562.38 1315.46 1563.24 Q1318.61 1564.07 1321.7 1564.07 Q1325.84 1564.07 1328.06 1562.66 Q1330.29 1561.23 1330.29 1558.65 Q1330.29 1556.27 1328.67 1554.99 Q1327.08 1553.72 1321.64 1552.54 L1319.6 1552.07 Q1314.16 1550.92 1311.74 1548.56 Q1309.32 1546.18 1309.32 1542.04 Q1309.32 1537.01 1312.88 1534.27 Q1316.45 1531.54 1323 1531.54 Q1326.25 1531.54 1329.11 1532.01 Q1331.98 1532.49 1334.4 1533.45 Z" fill="#000000" fill-rule="evenodd" fill-opacity="1" /><path clip-path="url(#clip520)" d="M 0 0 M1348.24 1522.27 L1348.24 1532.4 L1360.31 1532.4 L1360.31 1536.95 L1348.24 1536.95 L1348.24 1556.3 Q1348.24 1560.66 1349.42 1561.9 Q1350.63 1563.14 1354.29 1563.14 L1360.31 1563.14 L1360.31 1568.04 L1354.29 1568.04 Q1347.51 1568.04 1344.93 1565.53 Q1342.36 1562.98 1342.36 1556.3 L1342.36 1536.95 L1338.06 1536.95 L1338.06 1532.4 L1342.36 1532.4 L1342.36 1522.27 L1348.24 1522.27 Z" fill="#000000" fill-rule="evenodd" fill-opacity="1" /><path clip-path="url(#clip520)" d="M 0 0 M1396.94 1548.76 L1396.94 1551.62 L1370.01 1551.62 Q1370.4 1557.67 1373.64 1560.85 Q1376.92 1564 1382.75 1564 Q1386.12 1564 1389.27 1563.17 Q1392.45 1562.35 1395.57 1560.69 L1395.57 1566.23 Q1392.42 1567.57 1389.11 1568.27 Q1385.8 1568.97 1382.4 1568.97 Q1373.87 1568.97 1368.87 1564 Q1363.9 1559.04 1363.9 1550.57 Q1363.9 1541.82 1368.61 1536.69 Q1373.36 1531.54 1381.38 1531.54 Q1388.57 1531.54 1392.74 1536.18 Q1396.94 1540.8 1396.94 1548.76 M1391.09 1547.04 Q1391.02 1542.23 1388.38 1539.37 Q1385.77 1536.5 1381.44 1536.5 Q1376.54 1536.5 1373.58 1539.27 Q1370.65 1542.04 1370.21 1547.07 L1391.09 1547.04 Z" fill="#000000" fill-rule="evenodd" fill-opacity="1" /><path clip-path="url(#clip520)" d="M 0 0 M1408.75 1562.7 L1408.75 1581.6 L1402.86 1581.6 L1402.86 1532.4 L1408.75 1532.4 L1408.75 1537.81 Q1410.6 1534.62 1413.4 1533.1 Q1416.23 1531.54 1420.14 1531.54 Q1426.64 1531.54 1430.68 1536.69 Q1434.75 1541.85 1434.75 1550.25 Q1434.75 1558.65 1430.68 1563.81 Q1426.64 1568.97 1420.14 1568.97 Q1416.23 1568.97 1413.4 1567.44 Q1410.6 1565.88 1408.75 1562.7 M1428.67 1550.25 Q1428.67 1543.79 1426 1540.13 Q1423.36 1536.44 1418.71 1536.44 Q1414.07 1536.44 1411.39 1540.13 Q1408.75 1543.79 1408.75 1550.25 Q1408.75 1556.71 1411.39 1560.4 Q1414.07 1564.07 1418.71 1564.07 Q1423.36 1564.07 1426 1560.4 Q1428.67 1556.71 1428.67 1550.25 Z" fill="#000000" fill-rule="evenodd" fill-opacity="1" /><path clip-path="url(#clip520)" d="M 0 0 M1463.62 1533.45 L1463.62 1538.98 Q1461.14 1537.71 1458.47 1537.07 Q1455.79 1536.44 1452.93 1536.44 Q1448.57 1536.44 1446.37 1537.77 Q1444.21 1539.11 1444.21 1541.79 Q1444.21 1543.82 1445.77 1545 Q1447.33 1546.15 1452.04 1547.2 L1454.04 1547.64 Q1460.28 1548.98 1462.89 1551.43 Q1465.53 1553.85 1465.53 1558.21 Q1465.53 1563.17 1461.59 1566.07 Q1457.67 1568.97 1450.8 1568.97 Q1447.93 1568.97 1444.81 1568.39 Q1441.72 1567.85 1438.29 1566.74 L1438.29 1560.69 Q1441.53 1562.38 1444.68 1563.24 Q1447.84 1564.07 1450.92 1564.07 Q1455.06 1564.07 1457.29 1562.66 Q1459.52 1561.23 1459.52 1558.65 Q1459.52 1556.27 1457.89 1554.99 Q1456.3 1553.72 1450.86 1552.54 L1448.82 1552.07 Q1443.38 1550.92 1440.96 1548.56 Q1438.54 1546.18 1438.54 1542.04 Q1438.54 1537.01 1442.11 1534.27 Q1445.67 1531.54 1452.23 1531.54 Q1455.47 1531.54 1458.34 1532.01 Q1461.2 1532.49 1463.62 1533.45 Z" fill="#000000" fill-rule="evenodd" fill-opacity="1" /><path clip-path="url(#clip520)" d="M 0 0 M1470.75 1518.58 L1475.84 1518.58 Q1480.62 1526.09 1482.97 1533.29 Q1485.36 1540.48 1485.36 1547.58 Q1485.36 1554.71 1482.97 1561.93 Q1480.62 1569.16 1475.84 1576.64 L1470.75 1576.64 Q1474.99 1569.35 1477.05 1562.16 Q1479.15 1554.93 1479.15 1547.58 Q1479.15 1540.23 1477.05 1533.06 Q1474.99 1525.9 1470.75 1518.58 Z" fill="#000000" fill-rule="evenodd" fill-opacity="1" /><polyline clip-path="url(#clip523)" style="stroke:#000000; stroke-width:2; stroke-opacity:0.1; fill:none" points="
  268.362,1413.88 2352.76,1413.88 
  "/>
<polyline clip-path="url(#clip523)" style="stroke:#000000; stroke-width:2; stroke-opacity:0.1; fill:none" points="
  268.362,1107.6 2352.76,1107.6 
  "/>
<polyline clip-path="url(#clip523)" style="stroke:#000000; stroke-width:2; stroke-opacity:0.1; fill:none" points="
  268.362,801.318 2352.76,801.318 
  "/>
<polyline clip-path="url(#clip523)" style="stroke:#000000; stroke-width:2; stroke-opacity:0.1; fill:none" points="
  268.362,495.037 2352.76,495.037 
  "/>
<polyline clip-path="url(#clip523)" style="stroke:#000000; stroke-width:2; stroke-opacity:0.1; fill:none" points="
  268.362,188.756 2352.76,188.756 
  "/>
<polyline clip-path="url(#clip520)" style="stroke:#000000; stroke-width:4; stroke-opacity:1; fill:none" points="
  268.362,1423.18 268.362,123.472 
  "/>
<polyline clip-path="url(#clip520)" style="stroke:#000000; stroke-width:4; stroke-opacity:1; fill:none" points="
  268.362,1413.88 293.374,1413.88 
  "/>
<polyline clip-path="url(#clip520)" style="stroke:#000000; stroke-width:4; stroke-opacity:1; fill:none" points="
  268.362,1107.6 293.374,1107.6 
  "/>
<polyline clip-path="url(#clip520)" style="stroke:#000000; stroke-width:4; stroke-opacity:1; fill:none" points="
  268.362,801.318 293.374,801.318 
  "/>
<polyline clip-path="url(#clip520)" style="stroke:#000000; stroke-width:4; stroke-opacity:1; fill:none" points="
  268.362,495.037 293.374,495.037 
  "/>
<polyline clip-path="url(#clip520)" style="stroke:#000000; stroke-width:4; stroke-opacity:1; fill:none" points="
  268.362,188.756 293.374,188.756 
  "/>
<path clip-path="url(#clip520)" d="M 0 0 M111.451 1433.67 L119.09 1433.67 L119.09 1407.31 L110.78 1408.97 L110.78 1404.71 L119.043 1403.05 L123.719 1403.05 L123.719 1433.67 L131.358 1433.67 L131.358 1437.61 L111.451 1437.61 L111.451 1433.67 Z" fill="#000000" fill-rule="evenodd" fill-opacity="1" /><path clip-path="url(#clip520)" d="M 0 0 M146.428 1406.13 Q142.817 1406.13 140.988 1409.69 Q139.182 1413.23 139.182 1420.36 Q139.182 1427.47 140.988 1431.03 Q142.817 1434.57 146.428 1434.57 Q150.062 1434.57 151.867 1431.03 Q153.696 1427.47 153.696 1420.36 Q153.696 1413.23 151.867 1409.69 Q150.062 1406.13 146.428 1406.13 M146.428 1402.42 Q152.238 1402.42 155.293 1407.03 Q158.372 1411.61 158.372 1420.36 Q158.372 1429.09 155.293 1433.7 Q152.238 1438.28 146.428 1438.28 Q140.617 1438.28 137.539 1433.7 Q134.483 1429.09 134.483 1420.36 Q134.483 1411.61 137.539 1407.03 Q140.617 1402.42 146.428 1402.42 Z" fill="#000000" fill-rule="evenodd" fill-opacity="1" /><path clip-path="url(#clip520)" d="M 0 0 M158.372 1396.52 L182.484 1396.52 L182.484 1399.72 L158.372 1399.72 L158.372 1396.52 Z" fill="#000000" fill-rule="evenodd" fill-opacity="1" /><path clip-path="url(#clip520)" d="M 0 0 M189.875 1407 L203.134 1407 L203.134 1410.2 L185.305 1410.2 L185.305 1407 Q187.468 1404.76 191.192 1401 Q194.934 1397.22 195.893 1396.13 Q197.718 1394.08 198.433 1392.67 Q199.166 1391.24 199.166 1389.87 Q199.166 1387.63 197.586 1386.22 Q196.025 1384.81 193.505 1384.81 Q191.718 1384.81 189.725 1385.43 Q187.75 1386.05 185.493 1387.31 L185.493 1383.47 Q187.787 1382.55 189.781 1382.08 Q191.775 1381.61 193.43 1381.61 Q197.793 1381.61 200.389 1383.79 Q202.984 1385.97 202.984 1389.62 Q202.984 1391.35 202.326 1392.91 Q201.686 1394.45 199.975 1396.56 Q199.505 1397.11 196.984 1399.72 Q194.464 1402.32 189.875 1407 Z" fill="#000000" fill-rule="evenodd" fill-opacity="1" /><path clip-path="url(#clip520)" d="M 0 0 M207.253 1405.42 L211.222 1405.42 L211.222 1410.2 L207.253 1410.2 L207.253 1405.42 Z" fill="#000000" fill-rule="evenodd" fill-opacity="1" /><path clip-path="url(#clip520)" d="M 0 0 M215.378 1382.12 L230.293 1382.12 L230.293 1385.31 L218.858 1385.31 L218.858 1392.2 Q219.685 1391.92 220.513 1391.78 Q221.34 1391.63 222.168 1391.63 Q226.87 1391.63 229.616 1394.21 Q232.362 1396.79 232.362 1401.19 Q232.362 1405.72 229.541 1408.24 Q226.719 1410.74 221.585 1410.74 Q219.817 1410.74 217.974 1410.44 Q216.149 1410.14 214.193 1409.54 L214.193 1405.72 Q215.886 1406.64 217.692 1407.09 Q219.497 1407.54 221.51 1407.54 Q224.763 1407.54 226.663 1405.83 Q228.563 1404.12 228.563 1401.19 Q228.563 1398.25 226.663 1396.54 Q224.763 1394.83 221.51 1394.83 Q219.986 1394.83 218.463 1395.17 Q216.958 1395.51 215.378 1396.22 L215.378 1382.12 Z" fill="#000000" fill-rule="evenodd" fill-opacity="1" /><path clip-path="url(#clip520)" d="M 0 0 M135.995 1127.39 L143.634 1127.39 L143.634 1101.03 L135.324 1102.69 L135.324 1098.43 L143.588 1096.77 L148.264 1096.77 L148.264 1127.39 L155.902 1127.39 L155.902 1131.33 L135.995 1131.33 L135.995 1127.39 Z" fill="#000000" fill-rule="evenodd" fill-opacity="1" /><path clip-path="url(#clip520)" d="M 0 0 M170.972 1099.85 Q167.361 1099.85 165.532 1103.41 Q163.726 1106.95 163.726 1114.08 Q163.726 1121.19 165.532 1124.75 Q167.361 1128.29 170.972 1128.29 Q174.606 1128.29 176.412 1124.75 Q178.24 1121.19 178.24 1114.08 Q178.24 1106.95 176.412 1103.41 Q174.606 1099.85 170.972 1099.85 M170.972 1096.14 Q176.782 1096.14 179.837 1100.75 Q182.916 1105.33 182.916 1114.08 Q182.916 1122.81 179.837 1127.41 Q176.782 1132 170.972 1132 Q165.162 1132 162.083 1127.41 Q159.027 1122.81 159.027 1114.08 Q159.027 1105.33 162.083 1100.75 Q165.162 1096.14 170.972 1096.14 Z" fill="#000000" fill-rule="evenodd" fill-opacity="1" /><path clip-path="url(#clip520)" d="M 0 0 M192.621 1078.34 Q189.687 1078.34 188.201 1081.23 Q186.734 1084.11 186.734 1089.9 Q186.734 1095.68 188.201 1098.57 Q189.687 1101.45 192.621 1101.45 Q195.574 1101.45 197.041 1098.57 Q198.527 1095.68 198.527 1089.9 Q198.527 1084.11 197.041 1081.23 Q195.574 1078.34 192.621 1078.34 M192.621 1075.33 Q197.342 1075.33 199.824 1079.07 Q202.326 1082.79 202.326 1089.9 Q202.326 1096.99 199.824 1100.74 Q197.342 1104.46 192.621 1104.46 Q187.9 1104.46 185.399 1100.74 Q182.916 1096.99 182.916 1089.9 Q182.916 1082.79 185.399 1079.07 Q187.9 1075.33 192.621 1075.33 Z" fill="#000000" fill-rule="evenodd" fill-opacity="1" /><path clip-path="url(#clip520)" d="M 0 0 M206.445 1099.14 L210.413 1099.14 L210.413 1103.92 L206.445 1103.92 L206.445 1099.14 Z" fill="#000000" fill-rule="evenodd" fill-opacity="1" /><path clip-path="url(#clip520)" d="M 0 0 M222.657 1078.34 Q219.723 1078.34 218.237 1081.23 Q216.77 1084.11 216.77 1089.9 Q216.77 1095.68 218.237 1098.57 Q219.723 1101.45 222.657 1101.45 Q225.61 1101.45 227.077 1098.57 Q228.563 1095.68 228.563 1089.9 Q228.563 1084.11 227.077 1081.23 Q225.61 1078.34 222.657 1078.34 M222.657 1075.33 Q227.378 1075.33 229.86 1079.07 Q232.362 1082.79 232.362 1089.9 Q232.362 1096.99 229.86 1100.74 Q227.378 1104.46 222.657 1104.46 Q217.936 1104.46 215.435 1100.74 Q212.952 1096.99 212.952 1089.9 Q212.952 1082.79 215.435 1079.07 Q217.936 1075.33 222.657 1075.33 Z" fill="#000000" fill-rule="evenodd" fill-opacity="1" /><path clip-path="url(#clip520)" d="M 0 0 M138.384 821.11 L146.023 821.11 L146.023 794.745 L137.712 796.411 L137.712 792.152 L145.976 790.485 L150.652 790.485 L150.652 821.11 L158.291 821.11 L158.291 825.045 L138.384 825.045 L138.384 821.11 Z" fill="#000000" fill-rule="evenodd" fill-opacity="1" /><path clip-path="url(#clip520)" d="M 0 0 M173.36 793.564 Q169.749 793.564 167.921 797.129 Q166.115 800.671 166.115 807.8 Q166.115 814.907 167.921 818.471 Q169.749 822.013 173.36 822.013 Q176.995 822.013 178.8 818.471 Q180.629 814.907 180.629 807.8 Q180.629 800.671 178.8 797.129 Q176.995 793.564 173.36 793.564 M173.36 789.86 Q179.17 789.86 182.226 794.467 Q185.305 799.05 185.305 807.8 Q185.305 816.527 182.226 821.133 Q179.17 825.717 173.36 825.717 Q167.55 825.717 164.471 821.133 Q161.416 816.527 161.416 807.8 Q161.416 799.05 164.471 794.467 Q167.55 789.86 173.36 789.86 Z" fill="#000000" fill-rule="evenodd" fill-opacity="1" /><path clip-path="url(#clip520)" d="M 0 0 M189.875 794.438 L203.134 794.438 L203.134 797.635 L185.305 797.635 L185.305 794.438 Q187.468 792.2 191.192 788.438 Q194.934 784.658 195.893 783.567 Q197.718 781.517 198.433 780.106 Q199.166 778.677 199.166 777.304 Q199.166 775.066 197.586 773.655 Q196.025 772.245 193.505 772.245 Q191.718 772.245 189.725 772.865 Q187.75 773.486 185.493 774.746 L185.493 770.909 Q187.787 769.988 189.781 769.517 Q191.775 769.047 193.43 769.047 Q197.793 769.047 200.389 771.229 Q202.984 773.411 202.984 777.059 Q202.984 778.79 202.326 780.351 Q201.686 781.893 199.975 783.999 Q199.505 784.545 196.984 787.159 Q194.464 789.755 189.875 794.438 Z" fill="#000000" fill-rule="evenodd" fill-opacity="1" /><path clip-path="url(#clip520)" d="M 0 0 M207.253 792.858 L211.222 792.858 L211.222 797.635 L207.253 797.635 L207.253 792.858 Z" fill="#000000" fill-rule="evenodd" fill-opacity="1" /><path clip-path="url(#clip520)" d="M 0 0 M215.378 769.555 L230.293 769.555 L230.293 772.752 L218.858 772.752 L218.858 779.636 Q219.685 779.354 220.513 779.222 Q221.34 779.072 222.168 779.072 Q226.87 779.072 229.616 781.648 Q232.362 784.225 232.362 788.626 Q232.362 793.159 229.541 795.679 Q226.719 798.18 221.585 798.18 Q219.817 798.18 217.974 797.88 Q216.149 797.579 214.193 796.977 L214.193 793.159 Q215.886 794.08 217.692 794.532 Q219.497 794.983 221.51 794.983 Q224.763 794.983 226.663 793.272 Q228.563 791.56 228.563 788.626 Q228.563 785.692 226.663 783.981 Q224.763 782.269 221.51 782.269 Q219.986 782.269 218.463 782.608 Q216.958 782.946 215.378 783.661 L215.378 769.555 Z" fill="#000000" fill-rule="evenodd" fill-opacity="1" /><path clip-path="url(#clip520)" d="M 0 0 M137.236 514.829 L144.875 514.829 L144.875 488.464 L136.565 490.13 L136.565 485.871 L144.829 484.204 L149.505 484.204 L149.505 514.829 L157.144 514.829 L157.144 518.764 L137.236 518.764 L137.236 514.829 Z" fill="#000000" fill-rule="evenodd" fill-opacity="1" /><path clip-path="url(#clip520)" d="M 0 0 M172.213 487.283 Q168.602 487.283 166.773 490.848 Q164.968 494.39 164.968 501.519 Q164.968 508.626 166.773 512.19 Q168.602 515.732 172.213 515.732 Q175.847 515.732 177.653 512.19 Q179.482 508.626 179.482 501.519 Q179.482 494.39 177.653 490.848 Q175.847 487.283 172.213 487.283 M172.213 483.579 Q178.023 483.579 181.079 488.186 Q184.157 492.769 184.157 501.519 Q184.157 510.246 181.079 514.852 Q178.023 519.436 172.213 519.436 Q166.403 519.436 163.324 514.852 Q160.269 510.246 160.269 501.519 Q160.269 492.769 163.324 488.186 Q166.403 483.579 172.213 483.579 Z" fill="#000000" fill-rule="evenodd" fill-opacity="1" /><path clip-path="url(#clip520)" d="M 0 0 M185.342 463.274 L200.257 463.274 L200.257 466.471 L188.822 466.471 L188.822 473.355 Q189.649 473.073 190.477 472.941 Q191.304 472.791 192.132 472.791 Q196.834 472.791 199.58 475.367 Q202.326 477.944 202.326 482.345 Q202.326 486.878 199.505 489.398 Q196.683 491.9 191.549 491.9 Q189.781 491.9 187.938 491.599 Q186.113 491.298 184.157 490.696 L184.157 486.878 Q185.85 487.799 187.656 488.251 Q189.461 488.702 191.474 488.702 Q194.727 488.702 196.627 486.991 Q198.527 485.279 198.527 482.345 Q198.527 479.411 196.627 477.7 Q194.727 475.988 191.474 475.988 Q189.95 475.988 188.427 476.327 Q186.922 476.665 185.342 477.38 L185.342 463.274 Z" fill="#000000" fill-rule="evenodd" fill-opacity="1" /><path clip-path="url(#clip520)" d="M 0 0 M206.445 486.577 L210.413 486.577 L210.413 491.354 L206.445 491.354 L206.445 486.577 Z" fill="#000000" fill-rule="evenodd" fill-opacity="1" /><path clip-path="url(#clip520)" d="M 0 0 M222.657 465.776 Q219.723 465.776 218.237 468.672 Q216.77 471.55 216.77 477.342 Q216.77 483.116 218.237 486.013 Q219.723 488.89 222.657 488.89 Q225.61 488.89 227.077 486.013 Q228.563 483.116 228.563 477.342 Q228.563 471.55 227.077 468.672 Q225.61 465.776 222.657 465.776 M222.657 462.766 Q227.378 462.766 229.86 466.509 Q232.362 470.233 232.362 477.342 Q232.362 484.433 229.86 488.176 Q227.378 491.9 222.657 491.9 Q217.936 491.9 215.435 488.176 Q212.952 484.433 212.952 477.342 Q212.952 470.233 215.435 466.509 Q217.936 462.766 222.657 462.766 Z" fill="#000000" fill-rule="evenodd" fill-opacity="1" /><path clip-path="url(#clip520)" d="M 0 0 M138.158 208.548 L145.797 208.548 L145.797 182.183 L137.487 183.849 L137.487 179.59 L145.751 177.924 L150.426 177.924 L150.426 208.548 L158.065 208.548 L158.065 212.484 L138.158 212.484 L138.158 208.548 Z" fill="#000000" fill-rule="evenodd" fill-opacity="1" /><path clip-path="url(#clip520)" d="M 0 0 M173.135 181.002 Q169.524 181.002 167.695 184.567 Q165.889 188.109 165.889 195.238 Q165.889 202.345 167.695 205.91 Q169.524 209.451 173.135 209.451 Q176.769 209.451 178.574 205.91 Q180.403 202.345 180.403 195.238 Q180.403 188.109 178.574 184.567 Q176.769 181.002 173.135 181.002 M173.135 177.299 Q178.945 177.299 182 181.905 Q185.079 186.488 185.079 195.238 Q185.079 203.965 182 208.572 Q178.945 213.155 173.135 213.155 Q167.324 213.155 164.246 208.572 Q161.19 203.965 161.19 195.238 Q161.19 186.488 164.246 181.905 Q167.324 177.299 173.135 177.299 Z" fill="#000000" fill-rule="evenodd" fill-opacity="1" /><path clip-path="url(#clip520)" d="M 0 0 M185.079 156.993 L203.134 156.993 L203.134 158.611 L192.941 185.073 L188.972 185.073 L198.564 160.19 L185.079 160.19 L185.079 156.993 Z" fill="#000000" fill-rule="evenodd" fill-opacity="1" /><path clip-path="url(#clip520)" d="M 0 0 M207.253 180.296 L211.222 180.296 L211.222 185.073 L207.253 185.073 L207.253 180.296 Z" fill="#000000" fill-rule="evenodd" fill-opacity="1" /><path clip-path="url(#clip520)" d="M 0 0 M215.378 156.993 L230.293 156.993 L230.293 160.19 L218.858 160.19 L218.858 167.074 Q219.685 166.792 220.513 166.66 Q221.34 166.51 222.168 166.51 Q226.87 166.51 229.616 169.087 Q232.362 171.663 232.362 176.064 Q232.362 180.597 229.541 183.117 Q226.719 185.619 221.585 185.619 Q219.817 185.619 217.974 185.318 Q216.149 185.017 214.193 184.415 L214.193 180.597 Q215.886 181.518 217.692 181.97 Q219.497 182.421 221.51 182.421 Q224.763 182.421 226.663 180.71 Q228.563 178.998 228.563 176.064 Q228.563 173.13 226.663 171.419 Q224.763 169.707 221.51 169.707 Q219.986 169.707 218.463 170.046 Q216.958 170.384 215.378 171.099 L215.378 156.993 Z" fill="#000000" fill-rule="evenodd" fill-opacity="1" /><path clip-path="url(#clip520)" d="M 0 0 M38.6263 828.311 Q39.0772 828.311 40.14 828.6 L65.325 834.913 Q70.9288 836.298 74.8579 840.806 Q78.787 845.283 78.787 850.372 Q78.787 853.431 77.1445 855.396 Q75.5342 857.36 73.0544 857.36 Q70.8644 857.36 69.8016 856.201 Q68.771 855.041 68.771 853.657 Q68.771 853.206 68.8998 852.723 Q69.0286 852.239 69.5761 851.724 Q70.1236 851.209 71.0576 851.209 Q72.5713 851.209 73.7629 852.529 Q74.3104 853.173 74.4392 853.785 Q74.5681 854.365 74.5681 855.363 Q75.4698 854.977 76.0817 854.268 Q76.6936 853.56 76.9191 852.755 Q77.1767 851.95 77.2411 851.434 Q77.3378 850.887 77.3378 850.372 Q77.3378 846.249 73.1832 843.093 Q71.9272 842.159 70.6711 841.483 Q69.4473 840.774 67.9336 840.259 Q66.4522 839.744 65.647 839.518 Q64.8419 839.261 63.0061 838.81 Q66.0013 841.805 66.0013 845.476 Q66.0013 847.022 65.5826 848.407 Q65.1639 849.76 64.2944 850.951 Q63.3926 852.143 61.8145 852.851 Q60.2364 853.528 58.1431 853.528 Q55.9209 853.528 52.8935 852.658 Q49.8662 851.789 44.2945 849.695 Q41.1706 848.568 39.6569 848.568 Q38.9162 848.568 38.4653 848.729 Q37.9822 848.89 37.8212 849.212 Q37.6279 849.534 37.5957 849.727 Q37.5635 849.888 37.5635 850.21 Q37.5635 852.111 39.4959 853.882 Q41.4282 855.653 45.7438 856.877 Q46.549 857.135 46.7422 857.296 Q46.9354 857.457 46.9354 857.94 Q46.9032 858.745 46.2591 858.745 Q46.0015 858.745 45.0031 858.455 Q43.9725 858.165 42.4588 857.489 Q40.9129 856.78 39.5281 855.814 Q38.111 854.848 37.1126 853.334 Q36.1143 851.789 36.1143 850.017 Q36.1143 847.602 37.6923 846.12 Q39.2382 844.607 41.5248 844.607 Q42.4588 844.607 43.2962 844.864 Q44.1013 845.09 46.2591 845.927 Q54.9547 849.309 59.2059 849.309 Q60.2364 849.309 61.106 849.148 Q61.9434 848.954 62.7807 848.536 Q63.5859 848.117 64.0689 847.28 Q64.5198 846.41 64.5198 845.219 Q64.5198 843.705 63.8113 842.288 Q63.0706 840.839 62.0722 839.937 Q61.0738 839.003 60.2364 838.455 Q59.3669 837.876 58.916 837.747 L47.0642 834.784 L41.7825 833.463 Q38.9162 832.852 38.2076 832.562 Q37.5313 832.175 37.177 831.499 Q36.8228 830.823 36.8228 830.243 Q36.8228 829.438 37.3059 828.89 Q37.789 828.311 38.6263 828.311 Z" fill="#000000" fill-rule="evenodd" fill-opacity="1" /><path clip-path="url(#clip520)" d="M 0 0 M45.6342 821.549 Q44.8 821.549 44.552 821.481 Q44.3041 821.391 43.9208 821.03 L34.0465 812.17 Q28.5908 807.323 23.834 807.323 Q20.7455 807.323 18.5361 808.947 Q16.3268 810.547 16.3268 813.501 Q16.3268 815.53 17.5667 817.243 Q18.8067 818.956 21.016 819.745 Q20.9709 819.61 20.9709 819.137 Q20.9709 817.987 21.6923 817.356 Q22.4137 816.702 23.3831 816.702 Q24.623 816.702 25.2317 817.513 Q25.8179 818.302 25.8179 819.091 Q25.8179 819.407 25.7503 819.835 Q25.6826 820.241 25.0514 820.895 Q24.3976 821.549 23.2479 821.549 Q20.0241 821.549 17.454 819.114 Q14.884 816.657 14.884 812.914 Q14.884 808.676 17.4089 805.903 Q19.9113 803.108 23.834 803.108 Q25.2092 803.108 26.4717 803.536 Q27.7116 803.942 28.681 804.505 Q29.6504 805.047 31.2059 806.534 Q32.7615 808.022 33.8661 809.217 Q34.9708 810.412 37.3154 813.095 L42.0722 817.987 L42.0722 809.668 Q42.0722 805.61 41.7115 805.294 Q41.0577 804.844 37.6085 804.28 L37.6085 803.108 L45.6342 804.415 L45.6342 821.549 Z" fill="#000000" fill-rule="evenodd" fill-opacity="1" /><path clip-path="url(#clip520)" d="M 0 0 M80.816 796.232 Q80.4939 796.232 79.7854 795.975 L17.5637 772.69 Q17.4993 772.69 17.145 772.529 Q16.7907 772.368 16.5653 772.271 Q16.3076 772.174 16.1144 771.981 Q15.9212 771.756 15.9212 771.498 Q15.9212 770.854 16.7263 770.854 Q16.7907 770.854 17.5637 771.047 L79.8498 794.397 Q80.977 794.783 81.2991 795.041 Q81.6211 795.266 81.6211 795.653 Q81.6211 796.232 80.816 796.232 Z" fill="#000000" fill-rule="evenodd" fill-opacity="1" /><path clip-path="url(#clip520)" d="M 0 0 M40.7197 719.874 Q43.1995 719.874 48.6745 721.226 Q54.1495 722.579 57.8854 724.221 Q66.0013 727.732 66.0013 733.787 Q66.0013 734.527 65.9369 735.268 Q65.8725 735.977 65.5826 737.039 Q65.2928 738.102 64.8419 738.972 Q64.3588 739.841 63.457 740.711 Q62.5553 741.548 61.3636 742.031 Q66.0013 744.704 66.0013 748.891 Q66.0013 752.949 63.9401 755.622 Q61.8789 758.263 57.66 758.263 Q55.7598 758.263 52.9579 757.49 Q50.156 756.717 44.359 754.559 Q41.3638 753.368 39.7213 753.368 Q38.9806 753.368 38.4975 753.529 Q38.0144 753.69 37.8534 754.012 Q37.6601 754.302 37.6279 754.495 Q37.5635 754.688 37.5635 755.01 Q37.5635 756.943 39.5281 758.682 Q41.4604 760.421 45.7438 761.677 Q46.549 761.934 46.7422 762.095 Q46.9354 762.256 46.9354 762.74 Q46.9032 763.545 46.2591 763.545 Q46.0015 763.545 45.0031 763.255 Q43.9725 762.965 42.4588 762.289 Q40.9129 761.58 39.5281 760.614 Q38.111 759.648 37.1126 758.134 Q36.1143 756.588 36.1143 754.817 Q36.1143 752.434 37.6923 750.92 Q39.2704 749.406 41.5248 749.406 Q42.169 749.406 42.8775 749.567 Q43.5538 749.728 44.0047 749.889 Q44.4234 750.018 45.7438 750.534 Q51.3154 752.659 53.9885 753.335 Q56.6616 753.98 58.5295 753.98 Q59.1414 753.98 59.6245 753.947 Q60.1076 753.915 61.106 753.658 Q62.1044 753.368 62.7807 752.852 Q63.4248 752.337 63.9723 751.274 Q64.5198 750.179 64.5198 748.698 Q64.5198 744.994 58.9804 742.611 Q58.6584 742.675 57.821 742.675 Q55.9531 742.675 53.441 742.096 Q52.8613 741.935 49.1576 741.001 Q45.4217 740.067 42.169 739.262 Q38.884 738.424 38.6907 738.328 Q37.789 738.005 37.3059 737.297 Q36.8228 736.588 36.8228 735.88 Q36.8228 735.075 37.3059 734.527 Q37.789 733.98 38.6263 733.98 Q38.7873 733.98 39.5281 734.173 Q40.2366 734.334 41.2994 734.592 Q42.3622 734.849 42.9097 734.978 L53.9885 737.748 Q56.565 738.456 58.7872 738.456 Q61.5891 738.456 63.0706 737.2 Q64.5198 735.944 64.5198 733.593 Q64.5198 729.181 58.7228 726.347 Q56.2107 725.059 52.2816 723.899 Q48.3525 722.708 46.6456 722.708 Q43.425 722.708 41.0418 725.091 Q40.5909 725.606 40.2366 725.832 Q39.8501 726.057 39.2704 726.057 Q38.1754 726.057 37.1448 725.027 Q36.1143 723.996 36.1143 722.772 Q36.1143 721.677 37.2093 720.775 Q38.272 719.874 40.7197 719.874 Z" fill="#000000" fill-rule="evenodd" fill-opacity="1" /><path clip-path="url(#clip520)" d="M 0 0 M45.6342 713.223 Q44.8 713.223 44.552 713.156 Q44.3041 713.066 43.9208 712.705 L34.0465 703.845 Q28.5908 698.998 23.834 698.998 Q20.7455 698.998 18.5361 700.621 Q16.3268 702.222 16.3268 705.175 Q16.3268 707.204 17.5667 708.918 Q18.8067 710.631 21.016 711.42 Q20.9709 711.285 20.9709 710.811 Q20.9709 709.662 21.6923 709.03 Q22.4137 708.377 23.3831 708.377 Q24.623 708.377 25.2317 709.188 Q25.8179 709.977 25.8179 710.766 Q25.8179 711.082 25.7503 711.51 Q25.6826 711.916 25.0514 712.57 Q24.3976 713.223 23.2479 713.223 Q20.0241 713.223 17.454 710.789 Q14.884 708.331 14.884 704.589 Q14.884 700.351 17.4089 697.578 Q19.9113 694.782 23.834 694.782 Q25.2092 694.782 26.4717 695.211 Q27.7116 695.617 28.681 696.18 Q29.6504 696.721 31.2059 698.209 Q32.7615 699.697 33.8661 700.892 Q34.9708 702.087 37.3154 704.769 L42.0722 709.662 L42.0722 701.343 Q42.0722 697.285 41.7115 696.969 Q41.0577 696.518 37.6085 695.955 L37.6085 694.782 L45.6342 696.09 L45.6342 713.223 Z" fill="#000000" fill-rule="evenodd" fill-opacity="1" /><path clip-path="url(#clip520)" d="M 0 0 M1052.74 27.2059 L1060.19 27.2059 L1069.51 62.6108 L1078.79 27.2059 L1087.58 27.2059 L1096.89 62.6108 L1106.17 27.2059 L1113.62 27.2059 L1101.75 72.576 L1092.96 72.576 L1083.2 35.3887 L1073.4 72.576 L1064.61 72.576 L1052.74 27.2059 Z" fill="#000000" fill-rule="evenodd" fill-opacity="1" /><path clip-path="url(#clip520)" d="M 0 0 M1150.37 28.5427 L1150.37 35.5912 Q1147.21 33.9709 1143.8 33.1607 Q1140.4 32.3505 1136.75 32.3505 Q1131.21 32.3505 1128.41 34.0519 Q1125.66 35.7533 1125.66 39.156 Q1125.66 41.7486 1127.64 43.2475 Q1129.63 44.7058 1135.62 46.0426 L1138.17 46.6097 Q1146.11 48.3111 1149.43 51.4303 Q1152.8 54.509 1152.8 60.0587 Q1152.8 66.3781 1147.77 70.0644 Q1142.79 73.7508 1134.04 73.7508 Q1130.39 73.7508 1126.42 73.0216 Q1122.5 72.3329 1118.12 70.9151 L1118.12 63.2184 Q1122.25 65.3654 1126.26 66.4591 Q1130.27 67.5124 1134.2 67.5124 Q1139.47 67.5124 1142.3 65.73 Q1145.14 63.9071 1145.14 60.6258 Q1145.14 57.5877 1143.07 55.9673 Q1141.05 54.3469 1134.12 52.8481 L1131.53 52.2405 Q1124.6 50.7821 1121.52 47.7845 Q1118.44 44.7463 1118.44 39.4801 Q1118.44 33.0797 1122.98 29.5959 Q1127.52 26.1121 1135.86 26.1121 Q1140 26.1121 1143.64 26.7198 Q1147.29 27.3274 1150.37 28.5427 Z" fill="#000000" fill-rule="evenodd" fill-opacity="1" /><path clip-path="url(#clip520)" d="M 0 0 M1193.26 28.9478 L1193.26 35.9153 Q1190.11 34.1734 1186.9 33.3227 Q1183.75 32.4315 1180.5 32.4315 Q1173.25 32.4315 1169.24 37.0496 Q1165.23 41.6271 1165.23 49.9314 Q1165.23 58.2358 1169.24 62.8538 Q1173.25 67.4314 1180.5 67.4314 Q1183.75 67.4314 1186.9 66.5807 Q1190.11 65.6895 1193.26 63.9476 L1193.26 70.8341 Q1190.15 72.2924 1186.78 73.0216 Q1183.46 73.7508 1179.69 73.7508 Q1169.45 73.7508 1163.41 67.3098 Q1157.37 60.8689 1157.37 49.9314 Q1157.37 38.832 1163.45 32.472 Q1169.57 26.1121 1180.18 26.1121 Q1183.62 26.1121 1186.9 26.8413 Q1190.19 27.5299 1193.26 28.9478 Z" fill="#000000" fill-rule="evenodd" fill-opacity="1" /><path clip-path="url(#clip520)" d="M 0 0 M1221.7 49.7694 Q1212.67 49.7694 1209.18 51.8354 Q1205.7 53.9013 1205.7 58.8839 Q1205.7 62.8538 1208.29 65.2034 Q1210.93 67.5124 1215.42 67.5124 Q1221.62 67.5124 1225.35 63.1374 Q1229.12 58.7219 1229.12 51.4303 L1229.12 49.7694 L1221.7 49.7694 M1236.57 46.6907 L1236.57 72.576 L1229.12 72.576 L1229.12 65.6895 Q1226.56 69.8214 1222.76 71.8063 Q1218.95 73.7508 1213.44 73.7508 Q1206.47 73.7508 1202.34 69.8619 Q1198.25 65.9325 1198.25 59.3701 Q1198.25 51.7138 1203.35 47.825 Q1208.5 43.9361 1218.66 43.9361 L1229.12 43.9361 L1229.12 43.2069 Q1229.12 38.0623 1225.71 35.2672 Q1222.35 32.4315 1216.23 32.4315 Q1212.34 32.4315 1208.66 33.3632 Q1204.97 34.295 1201.57 36.1584 L1201.57 29.2718 Q1205.66 27.692 1209.51 26.9223 Q1213.36 26.1121 1217 26.1121 Q1226.85 26.1121 1231.71 31.2163 Q1236.57 36.3204 1236.57 46.6907 Z" fill="#000000" fill-rule="evenodd" fill-opacity="1" /><path clip-path="url(#clip520)" d="M 0 0 M1244.39 9.54393 L1251.84 9.54393 L1251.84 72.576 L1244.39 72.576 L1244.39 9.54393 Z" fill="#000000" fill-rule="evenodd" fill-opacity="1" /><path clip-path="url(#clip520)" d="M 0 0 M1298.47 48.0275 L1298.47 51.6733 L1264.2 51.6733 Q1264.68 59.3701 1268.81 63.421 Q1272.99 67.4314 1280.4 67.4314 Q1284.69 67.4314 1288.7 66.3781 Q1292.76 65.3249 1296.72 63.2184 L1296.72 70.267 Q1292.71 71.9684 1288.5 72.8596 Q1284.29 73.7508 1279.95 73.7508 Q1269.1 73.7508 1262.74 67.4314 Q1256.42 61.1119 1256.42 50.3365 Q1256.42 39.1965 1262.41 32.6746 Q1268.45 26.1121 1278.66 26.1121 Q1287.81 26.1121 1293.12 32.0264 Q1298.47 37.9003 1298.47 48.0275 M1291.01 45.84 Q1290.93 39.7232 1287.57 36.0774 Q1284.25 32.4315 1278.74 32.4315 Q1272.5 32.4315 1268.73 35.9558 Q1265.01 39.4801 1264.44 45.8805 L1291.01 45.84 Z" fill="#000000" fill-rule="evenodd" fill-opacity="1" /><path clip-path="url(#clip520)" d="M 0 0 M1333.63 34.9026 L1385.56 34.9026 L1385.56 41.7081 L1333.63 41.7081 L1333.63 34.9026 M1333.63 51.4303 L1385.56 51.4303 L1385.56 58.3168 L1333.63 58.3168 L1333.63 51.4303 Z" fill="#000000" fill-rule="evenodd" fill-opacity="1" /><path clip-path="url(#clip520)" d="M 0 0 M1438.3 17.4837 Q1431.98 17.4837 1428.78 23.7221 Q1425.62 29.92 1425.62 42.3968 Q1425.62 54.833 1428.78 61.0714 Q1431.98 67.2693 1438.3 67.2693 Q1444.66 67.2693 1447.82 61.0714 Q1451.02 54.833 1451.02 42.3968 Q1451.02 29.92 1447.82 23.7221 Q1444.66 17.4837 1438.3 17.4837 M1438.3 11.0023 Q1448.47 11.0023 1453.82 19.0636 Q1459.21 27.0843 1459.21 42.3968 Q1459.21 57.6687 1453.82 65.73 Q1448.47 73.7508 1438.3 73.7508 Q1428.14 73.7508 1422.75 65.73 Q1417.4 57.6687 1417.4 42.3968 Q1417.4 27.0843 1422.75 19.0636 Q1428.14 11.0023 1438.3 11.0023 Z" fill="#000000" fill-rule="evenodd" fill-opacity="1" /><path clip-path="url(#clip520)" d="M 0 0 M1468.08 62.2867 L1476.63 62.2867 L1476.63 72.576 L1468.08 72.576 L1468.08 62.2867 Z" fill="#000000" fill-rule="evenodd" fill-opacity="1" /><path clip-path="url(#clip520)" d="M 0 0 M1503 17.4837 Q1496.68 17.4837 1493.48 23.7221 Q1490.32 29.92 1490.32 42.3968 Q1490.32 54.833 1493.48 61.0714 Q1496.68 67.2693 1503 67.2693 Q1509.36 67.2693 1512.52 61.0714 Q1515.72 54.833 1515.72 42.3968 Q1515.72 29.92 1512.52 23.7221 Q1509.36 17.4837 1503 17.4837 M1503 11.0023 Q1513.16 11.0023 1518.51 19.0636 Q1523.9 27.0843 1523.9 42.3968 Q1523.9 57.6687 1518.51 65.73 Q1513.16 73.7508 1503 73.7508 Q1492.83 73.7508 1487.44 65.73 Q1482.09 57.6687 1482.09 42.3968 Q1482.09 27.0843 1487.44 19.0636 Q1492.83 11.0023 1503 11.0023 Z" fill="#000000" fill-rule="evenodd" fill-opacity="1" /><path clip-path="url(#clip520)" d="M 0 0 M1539.82 65.6895 L1568.38 65.6895 L1568.38 72.576 L1529.98 72.576 L1529.98 65.6895 Q1534.63 60.8689 1542.66 52.7671 Q1550.72 44.6248 1552.78 42.2752 Q1556.71 37.8598 1558.25 34.8216 Q1559.83 31.7429 1559.83 28.7857 Q1559.83 23.9651 1556.43 20.927 Q1553.07 17.8888 1547.64 17.8888 Q1543.79 17.8888 1539.5 19.2256 Q1535.24 20.5624 1530.38 23.2765 L1530.38 15.0127 Q1535.32 13.0277 1539.62 12.015 Q1543.91 11.0023 1547.48 11.0023 Q1556.87 11.0023 1562.46 15.7013 Q1568.05 20.4004 1568.05 28.2591 Q1568.05 31.9859 1566.64 35.3482 Q1565.26 38.6699 1561.57 43.2069 Q1560.56 44.3817 1555.13 50.0125 Q1549.7 55.6027 1539.82 65.6895 Z" fill="#000000" fill-rule="evenodd" fill-opacity="1" /><polyline clip-path="url(#clip523)" style="stroke:#009af9; stroke-width:4; stroke-opacity:1; fill:none" points="
  327.354,1386.4 347.018,1085.21 366.682,1205.45 386.346,1025.84 406.01,955.686 425.675,882.523 445.339,824.262 465.003,768.093 484.667,678.605 504.331,526.25 
  523.995,560.746 543.659,634.621 563.323,664.458 582.987,670.689 602.651,669.37 622.315,665.436 641.98,662.134 661.644,652.478 681.308,641.54 700.972,627.439 
  720.636,608.012 740.3,583.591 759.964,553.074 779.628,498.794 799.292,397.494 818.956,179.047 838.621,393.289 858.285,449.105 877.949,481.436 897.613,503.091 
  917.277,517.137 936.941,529.073 956.605,534 976.269,532.807 995.933,531.402 1015.6,525.536 1035.26,518.737 1054.93,504.035 1074.59,467.726 1094.25,403.765 
  1113.92,160.256 1133.58,391.366 1153.25,475.015 1172.91,524.76 1192.57,548.233 1212.24,561.506 1231.9,570.223 1251.57,576.58 1271.23,580.313 1290.89,577.173 
  1310.56,566.714 1330.22,557.957 1349.89,541.099 1369.55,514.008 1389.22,475.141 1408.88,399.758 1428.54,173.792 1448.21,373.633 1467.87,464.859 1487.54,506.873 
  1507.2,537.076 1526.86,555.759 1546.53,569.423 1566.19,576.7 1585.86,577.397 1605.52,572.419 1625.18,563.912 1644.85,552.778 1664.51,540.663 1684.18,524.658 
  1703.84,510.981 1723.5,487.575 1743.17,464.142 1762.83,480.303 1782.5,517.076 1802.16,536.192 1821.83,546.65 1841.49,547.032 1861.15,544.245 1880.82,532.914 
  1900.48,508.624 1920.15,464.967 1939.81,359.614 1959.47,332.944 1979.14,433.931 1998.8,477.314 2018.47,519.06 2038.13,554.174 2057.79,584.237 2077.46,609.21 
  2097.12,624.738 2116.79,638.209 2136.45,643.402 2156.11,647.923 2175.78,644.701 2195.44,634.147 2215.11,618.84 2234.77,595.93 2254.44,558.466 2274.1,498.177 
  2293.76,371.399 
  "/>
<path clip-path="url(#clip520)" d="
M2000.66 287.756 L2283.28 287.756 L2283.28 166.796 L2000.66 166.796  Z
  " fill="#ffffff" fill-rule="evenodd" fill-opacity="1"/>
<polyline clip-path="url(#clip520)" style="stroke:#000000; stroke-width:4; stroke-opacity:1; fill:none" points="
  2000.66,287.756 2283.28,287.756 2283.28,166.796 2000.66,166.796 2000.66,287.756 
  "/>
<polyline clip-path="url(#clip520)" style="stroke:#009af9; stroke-width:4; stroke-opacity:1; fill:none" points="
  2023.82,227.276 2162.78,227.276 
  "/>
<path clip-path="url(#clip520)" d="M 0 0 M2199.78 246.963 Q2197.97 251.593 2196.26 253.005 Q2194.55 254.417 2191.68 254.417 L2188.28 254.417 L2188.28 250.852 L2190.78 250.852 Q2192.54 250.852 2193.51 250.019 Q2194.48 249.185 2195.66 246.083 L2196.42 244.139 L2185.94 218.63 L2190.45 218.63 L2198.55 238.908 L2206.66 218.63 L2211.17 218.63 L2199.78 246.963 Z" fill="#000000" fill-rule="evenodd" fill-opacity="1" /><path clip-path="url(#clip520)" d="M 0 0 M2217.05 240.621 L2224.69 240.621 L2224.69 214.255 L2216.38 215.922 L2216.38 211.662 L2224.64 209.996 L2229.32 209.996 L2229.32 240.621 L2236.96 240.621 L2236.96 244.556 L2217.05 244.556 L2217.05 240.621 Z" fill="#000000" fill-rule="evenodd" fill-opacity="1" /></svg>
